<svg width="203" height="57" viewBox="0 0 203 57" fill="none" xmlns="http://www.w3.org/2000/svg">
<path fill-rule="evenodd" clip-rule="evenodd" d="M45.9086 25.75C46.4793 21.9733 48.1389 18.8651 50.8875 16.483C52.3907 15.2111 53.7782 14.4017 55.05 13.997C56.3219 13.5924 57.6516 13.4189 59.0969 13.4189C60.5422 13.4189 61.6985 13.6502 62.5657 14.1705C63.0282 13.3033 63.4907 12.8408 64.0688 12.8408C65.1094 12.8408 66.15 13.3033 67.1329 14.2283C68.1157 15.1533 68.5782 16.0783 68.5782 16.8877C68.1157 17.8705 67.4797 19.0845 66.6703 20.5299C66.4391 21.9174 66.3235 23.9408 66.3235 26.4845C66.3235 29.0283 66.7282 30.5892 67.3063 30.3002C72.4516 27.9299 75.4 20.6455 76.0938 18.0439C74.7063 16.6564 73.8391 15.7892 73.8391 14.8064C73.8391 12.7252 74.9953 11.6845 77.1922 11.6845C78.3485 11.6845 79.3313 12.2627 80.1985 13.4767C80.7766 14.2861 81.2391 15.2689 81.5282 16.3674C81.9328 16.5408 82.511 16.5986 83.1469 16.5986C84.0719 16.5986 85.1125 16.3095 86.2688 15.7314L87.4828 15.1533C87.8875 14.9799 88.1766 14.8642 88.4657 14.8642C89.3328 14.8642 90.2579 16.1939 91.125 18.7955C90.836 20.0095 90.5469 21.1658 90.2 22.2642L90.1198 22.5315L90.1198 22.5316L90.1197 22.5319C89.7914 23.6247 89.4176 24.8693 89.0438 26.3111C88.5813 27.872 88.35 28.9705 88.35 29.4908C88.2922 30.0111 88.4657 30.3002 88.8125 30.3002C89.275 30.3002 89.8532 30.0111 90.5469 29.433C91.2407 28.8549 91.8766 28.2189 92.5704 27.5252C92.9491 27.112 93.3278 26.7194 93.6943 26.3472C94.1718 22.2703 95.8591 18.9932 98.7561 16.4824C100.259 15.2106 101.589 14.4012 102.919 13.9965C104.191 13.5918 105.52 13.4184 106.966 13.4184C108.411 13.4184 109.567 13.6496 110.434 14.1699C110.839 13.3027 111.359 12.8402 111.937 12.8402C113.036 12.8402 114.019 13.3027 115.001 14.2277C115.984 15.1527 116.447 16.0778 116.447 16.8871C116.042 17.9277 115.406 19.1418 114.539 20.5293C114.308 21.9746 114.192 23.9402 114.192 26.484C114.192 29.0278 114.539 30.2996 115.175 30.2996C115.942 30.2996 117.697 28.8447 120.537 25.984C120.707 24.6763 121.016 23.4554 121.477 22.3214C122.228 20.4714 123.153 18.8527 124.367 17.4652C125.581 16.1355 126.911 15.0371 128.414 14.2855C129.917 13.5339 131.362 13.1293 132.692 13.1293C135.062 13.1293 136.277 14.0543 136.277 15.9621C136.277 17.0605 136.045 17.9277 135.583 18.5636C135.12 19.1996 134.658 19.5464 134.195 19.5464C133.559 19.5464 133.039 19.3152 132.577 18.9105C132.114 18.5058 131.594 18.2746 131.073 18.2168C130.495 18.2168 129.975 18.448 129.455 19.0261C128.934 19.6043 128.53 20.298 128.183 21.1652C127.489 22.8996 127.142 24.923 127.142 27.2355C127.2 28.3339 127.662 29.2011 128.645 29.7214C129.339 30.0683 130.148 30.2996 131.073 30.2996C131.998 30.2996 132.866 30.0105 133.733 29.3746C134.6 28.7386 135.352 28.1027 136.045 27.3511C136.259 27.1201 136.466 26.8999 136.667 26.6873C137.119 26.2085 137.535 25.7681 137.895 25.3277C138.09 25.2039 138.263 25.0855 138.416 24.9809C138.539 24.8965 138.649 24.821 138.747 24.7587L139.977 14.2277C140.96 13.4762 142.289 13.1293 144.081 13.1293C145.527 13.1293 146.278 14.0543 146.51 15.9043C146.683 17.4074 146.567 18.7371 146.278 19.9512C146.124 20.5975 145.938 21.3093 145.727 22.1128C145.542 22.8187 145.338 23.5954 145.122 24.4606C144.602 26.2527 144.37 27.8715 144.37 29.259C144.37 30.3574 145.064 30.9356 146.452 30.9356C147.955 30.9356 149.285 29.6059 150.383 26.9465C151.25 24.9231 151.828 22.6684 152.117 20.1246C152.06 19.8934 152.06 19.5465 152.06 19.1996C152.06 18.9973 152.045 18.8094 152.031 18.6215C152.016 18.4336 152.002 18.2457 152.002 18.0434V16.9449V15.9621H152.117C152.117 13.8809 153.736 12.8402 156.916 12.8402C157.725 12.8402 158.245 13.1293 158.419 13.6496C158.592 14.1699 158.708 14.9793 158.708 16.0777C158.708 17.5809 158.361 19.9512 157.667 23.1309C156.974 26.3106 156.685 28.4496 156.685 29.5481C156.685 30.0684 156.858 30.3574 157.205 30.3574C157.667 30.3574 158.245 30.0684 158.939 29.4902C159.633 28.9122 160.269 28.2764 160.962 27.5827L160.963 27.5824C161.656 26.8887 162.292 26.2527 162.813 25.6746C163.391 25.0965 163.795 24.8074 163.969 24.8074L163.976 24.8075C163.98 24.8075 163.983 24.8076 163.987 24.8078C163.989 24.8079 163.992 24.808 163.994 24.8081C164.025 24.5179 164.055 24.2287 164.084 23.9407C164.258 22.2642 164.547 19.7782 164.951 16.4829C165.067 15.6157 165.414 14.922 165.992 14.5173C166.57 14.1126 167.38 13.8814 168.536 13.8814C169.287 13.9392 169.923 14.1126 170.212 14.3439C170.501 14.6329 170.675 14.9798 170.675 15.5001C170.675 16.8298 170.212 20.5876 169.23 26.8314C169.203 27.0027 169.171 27.2011 169.134 27.428L169.134 27.4295C169.008 28.1974 168.83 29.2908 168.651 30.7626C168.612 31.0328 168.572 31.301 168.532 31.5672C169.829 30.6024 171.21 29.4217 172.655 28.0354C172.827 23.1655 174.557 19.3309 177.844 16.4824C179.347 15.2106 180.676 14.4012 182.006 13.9965C183.278 13.5918 184.608 13.4184 186.053 13.4184C187.498 13.4184 188.655 13.6496 189.522 14.1699C189.926 13.3027 190.447 12.8402 191.025 12.8402C192.123 12.8402 193.106 13.3027 194.089 14.2277C195.072 15.1527 195.534 16.0778 195.534 16.8871C195.13 17.9277 194.494 19.1418 193.626 20.5293C193.395 21.9746 193.28 23.9402 193.28 26.484C193.28 29.0278 193.626 30.2996 194.262 30.2996C195.072 30.2996 196.98 28.6809 200.101 25.5012C200.68 24.9231 201.084 24.5762 201.373 24.5762C201.951 24.5762 202.183 25.2699 202.183 26.7153C202.183 27.4668 201.836 28.3918 201.2 29.4902C200.564 30.5887 199.697 31.5715 198.656 32.4965C197.616 33.4215 196.459 34.1731 195.187 34.7512C193.916 35.3293 192.701 35.6184 191.487 35.6184C189.869 35.6184 188.77 34.1731 188.192 31.3402C187.383 32.6699 186.342 33.7684 185.07 34.5777C183.798 35.4449 182.064 35.8496 179.867 35.8496C177.67 35.8496 175.936 35.1559 174.606 33.8262C174.166 33.3858 173.801 32.9074 173.511 32.393C173.362 32.5617 173.207 32.7315 173.045 32.9023C171.517 34.5173 169.693 35.9016 167.572 37.0801C166.576 42.0843 165.362 46.2344 163.911 49.5517C161.887 54.1767 159.17 56.4892 155.875 56.4892C154.256 56.4892 152.984 56.0267 152.001 55.0439C151.019 54.0611 150.556 52.7892 150.556 51.2282C150.556 49.0314 151.423 46.7189 153.1 44.2329C154.776 41.747 158.014 38.6829 162.697 35.0407L163.044 32.6704C163.15 31.8936 163.253 31.1168 163.351 30.3421C162.858 31.1067 162.217 31.8634 161.425 32.6121C157.841 34.6934 155.586 35.734 154.603 35.734C154.488 35.734 154.43 35.734 154.372 35.6762C153.216 35.6762 152.349 35.2715 151.886 34.5199C151.424 33.7684 151.135 32.7856 150.961 31.6293C150.325 32.7856 149.516 33.7684 148.417 34.5777C147.319 35.3871 146.105 35.7918 144.717 35.7918C142.289 35.7918 140.381 35.3293 139.11 34.4043C138.191 33.7652 137.603 32.9053 137.328 31.8437C137.249 31.9268 137.168 32.0095 137.086 32.0918C136.103 33.0746 134.889 33.9418 133.386 34.6355C131.883 35.3293 130.091 35.6761 128.067 35.6761C126.044 35.6761 124.194 35.0402 122.691 33.8261C121.81 33.1414 121.187 32.2912 120.812 31.2652C120.432 31.6894 120.017 32.0983 119.569 32.4965C118.528 33.4215 117.372 34.1731 116.1 34.7512C114.828 35.3293 113.614 35.6184 112.4 35.6184C110.781 35.6184 109.683 34.1731 109.105 31.3402C108.295 32.6699 107.255 33.7684 105.983 34.5777C104.711 35.4449 102.976 35.8496 100.78 35.8496C98.5827 35.8496 96.8483 35.1559 95.5186 33.8262C94.9227 33.2303 94.4662 32.5647 94.1437 31.8347C93.942 32.0941 93.7258 32.3534 93.4954 32.6127C91.6454 34.6939 89.5063 35.7345 87.0782 35.6767C85.6907 35.6767 84.5922 35.0986 83.8985 33.9424C83.2047 32.7861 82.8579 31.3986 82.8 29.7799C82.8 26.5424 83.5516 23.4783 84.9969 20.5877C84.3032 20.8767 83.5516 20.9924 82.6844 20.9924C81.8172 20.9924 79.3891 20.7611 79.0422 20.7033C78.0594 24.5189 75.6313 28.0455 75.6313 28.0455C74.1793 30.3272 73.0064 31.353 72.0291 32.2077C71.9169 32.3058 71.8072 32.4018 71.7 32.497C70.6594 33.422 69.5032 34.1736 68.2313 34.7517C66.9594 35.3299 65.7454 35.6189 64.5313 35.6189C62.9125 35.6189 61.8141 34.2314 61.236 31.3408C60.4844 32.6705 59.386 33.7111 58.1141 34.5783C56.8422 35.4455 55.1079 35.8502 52.911 35.8502C50.7141 35.8502 48.9797 35.1564 47.65 33.8267C46.875 33.018 46.316 32.1307 45.996 31.1419C45.588 31.6107 45.1352 32.0604 44.6437 32.4973C43.6031 33.4223 42.4469 34.1738 41.175 34.752C39.9031 35.3301 38.5734 35.6191 37.1859 35.6191C35.7984 35.6191 34.7 35.1566 33.8906 34.2316C33.0812 33.3066 32.7344 32.3238 32.7344 31.1676C32.7344 30.0691 32.9078 28.7973 33.3125 27.352C33.6594 25.9066 34.064 24.4613 34.5265 22.9004C35.6828 18.7957 36.3187 15.9051 36.3187 14.2285C36.3187 13.5348 36.2031 12.9566 36.0297 12.6098C35.8562 12.2051 35.5094 12.0316 34.989 12.0316C34.064 12.0316 33.0812 12.6098 32.0406 13.7082C31 14.8066 30.0172 16.252 29.0922 17.9863C26.9531 21.9176 25.8547 25.791 25.739 29.5488C25.7679 29.7512 25.7969 29.968 25.8258 30.1847L25.8258 30.1848L25.8258 30.1854L25.8258 30.1854C25.8547 30.402 25.8836 30.6186 25.9125 30.8207C25.9703 31.2254 26.0281 31.6879 26.0281 32.2082C26.0281 33.191 25.5656 34.116 24.5828 34.9254C23.6 35.7348 22.5015 36.1394 21.3453 36.1394C20.6515 36.1394 20.1312 35.7926 19.7844 35.0988C19.4375 34.4051 19.264 33.5379 19.264 32.5551C19.264 31.5145 19.4953 30.1269 19.9578 28.3926C20.1502 27.6711 20.3526 26.9196 20.5608 26.1464L20.5611 26.1452L20.5612 26.145L20.5615 26.1439L20.5616 26.1434C20.8537 25.0588 21.1573 23.9316 21.4609 22.7848C22.964 17.5816 23.7156 13.7082 23.7156 11.1066C23.7156 9.83476 23.5422 8.79414 23.2531 8.04258C22.9062 7.29102 22.3281 6.94414 21.4031 6.94414C19.7265 6.94414 18.1078 8.1582 16.4312 10.5285C14.8125 12.8988 13.3094 16.5988 12.0375 21.5707C11.8197 22.3691 11.6476 23.1219 11.4923 23.8006C11.4003 24.2031 11.3142 24.5795 11.2281 24.9238L11.1125 25.9066C11.6906 28.7395 11.9797 30.5894 11.9797 31.4566C11.9797 33.2488 11.3437 34.4629 10.0719 35.041C9.83677 35.1586 9.6017 35.2665 9.37051 35.3727C9.03313 35.5277 8.70403 35.6789 8.39529 35.8504C7.87498 36.0816 7.29685 36.1973 6.66091 36.1973C5.09998 36.1973 4.34841 34.7519 4.34841 31.8035C4.34841 28.8551 5.15779 23.0738 6.77654 14.5176C7.35466 11.4535 7.64373 9.71914 7.64373 9.31445C7.64373 6.82851 7.00779 5.55664 5.73591 5.55664C5.33123 5.55664 4.92654 5.67226 4.57966 5.90351C4.23279 6.13476 3.88592 6.42382 3.53905 6.71288L3.53904 6.71289C3.27126 6.93604 3.00347 7.12474 2.70909 7.33218L2.70908 7.33219L2.70907 7.3322L2.70907 7.3322L2.70906 7.3322C2.62212 7.39347 2.53286 7.45636 2.4406 7.52227C2.09373 7.75352 1.63123 7.86914 1.16873 7.86914C0.706225 7.86914 0.474976 7.46445 0.474976 6.59727C0.474976 4.9207 1.28435 3.5332 2.84529 2.43477C4.34841 1.33633 6.19841 0.758203 8.33748 0.758203C11.1125 0.758203 12.7312 2.03008 13.2515 4.63164C13.3672 5.3832 13.4828 6.19258 13.5406 7.05976C15.7953 2.78164 18.6859 0.642578 22.2125 0.642578C26.0281 0.642578 28.1672 2.43477 28.7453 6.07695C28.9187 7.11758 29.0344 8.27383 28.9765 9.43008V9.77695C31 7.00195 33.3703 5.61445 36.0875 5.61445C39.9609 5.61445 41.9265 7.98476 41.9265 12.6676C41.9265 14.691 41.6375 17.0613 41.0015 19.8363C40.3656 22.5535 39.9031 24.5191 39.614 25.7332C39.325 26.9473 39.1515 27.8145 39.1515 28.5082C39.1515 29.6644 39.5562 30.2426 40.3656 30.2426C41.1486 30.2426 43.0137 28.7276 45.9086 25.75ZM59.7328 27.9299C60.1375 27.2361 60.4844 26.4267 60.7735 25.4439C60.7735 21.9752 61.1203 19.0267 61.6985 16.5408C59.2125 17.0033 57.0157 18.2174 55.1657 20.1252C53.3157 22.033 52.3907 24.4611 52.3907 27.3517C52.3907 29.722 53.3157 30.9361 55.05 30.9361C56.9579 30.8783 58.5188 29.8955 59.7328 27.9299ZM100.491 27.3512C100.491 29.7215 101.358 30.9356 103.15 30.9356C105.058 30.8778 106.561 29.8949 107.833 27.9293C108.237 27.2356 108.642 26.4262 108.873 25.4434C108.873 21.9746 109.162 19.0262 109.798 16.5402C107.312 17.0606 105.116 18.2168 103.266 20.1246C101.416 22.0324 100.491 24.4606 100.491 27.3512ZM161.598 40.5329C160.789 44.5798 159.922 47.5282 158.939 49.3204C157.956 51.1704 157.089 52.0376 156.222 52.0376C155.355 52.0376 154.95 51.4595 154.95 50.2454C154.95 49.0314 155.47 47.5861 156.511 45.9673C157.551 44.3486 159.228 42.5564 161.598 40.5329ZM172.756 6.88606C172.756 5.84543 172.409 5.09387 171.716 4.51575C171.022 3.93762 170.097 3.70637 168.941 3.64856C167.669 3.64856 166.628 3.99543 165.761 4.747C164.894 5.49856 164.489 6.36575 164.489 7.46418C164.489 8.56262 164.836 9.372 165.472 10.0079C166.108 10.6439 167.091 10.9329 168.362 10.9329C169.692 10.9329 170.733 10.5861 171.542 9.8345C172.351 9.08293 172.756 8.10012 172.756 6.88606ZM179.52 27.3512C179.52 29.7215 180.387 30.9356 182.18 30.9356C184.087 30.8778 185.591 29.8949 186.862 27.9293C187.267 27.2356 187.672 26.4262 187.903 25.4434C187.903 21.9746 188.192 19.0262 188.828 16.5402C186.342 17.0606 184.145 18.2168 182.295 20.1246C180.445 22.0324 179.52 24.4606 179.52 27.3512Z" fill="white"/>
</svg>
