<svg width="88" height="75" viewBox="0 0 88 75" fill="none" xmlns="http://www.w3.org/2000/svg">
<path d="M78.6514 14.0276C78.3181 13.6944 77.8664 13.5068 77.3952 13.5068H34.7361C25.1606 13.5068 17.0385 19.8502 14.3511 28.5554H19.0212L15.9272 36.4616H13.469C14.0006 43.4803 17.9443 49.5612 23.6409 53.0455C21.6602 49.8096 20.5176 46.0075 20.5176 41.9436C20.5176 30.1832 30.0859 20.6147 41.8466 20.6147H84.5041C84.9939 20.6147 85.4374 20.8132 85.7588 21.134L78.6514 14.0276Z" fill="#F2CB6F"/>
<path d="M41.8468 20.6143C30.0863 20.6143 20.5178 30.1825 20.5178 41.9431C20.5178 53.7036 30.0861 63.2719 41.8468 63.2719C53.6075 63.2719 63.1756 53.7038 63.1756 41.9431L71.9789 39.1051V20.6143H41.8468Z" fill="#F5E996"/>
<path d="M84.5042 20.6143H71.9788V39.1053L84.5042 35.0676C85.4857 35.0676 86.2812 34.2733 86.2812 33.2919V22.393C86.2812 21.4111 85.4859 20.6143 84.5042 20.6143Z" fill="#6BBADB"/>
<path d="M85.7935 21.1689C86.096 21.4879 86.2818 21.919 86.2818 22.3932V22.4327C86.2917 21.9752 86.1257 21.5182 85.7935 21.1689Z" fill="#F2CB6F"/>
<path d="M85.7907 21.166C85.7844 21.1595 85.7781 21.153 85.7717 21.1465C85.7781 21.153 85.7844 21.1595 85.7907 21.166Z" fill="#F2CB6F"/>
<path d="M41.8467 33.0576C46.7465 33.0576 50.734 37.0437 50.734 41.9437C50.734 46.8437 46.7467 50.8324 41.8467 50.8324C36.9467 50.8324 32.9604 46.8437 32.9604 41.9437C32.9604 37.0437 36.9466 33.0576 41.8467 33.0576Z" fill="#FF5F5F"/>
<path d="M41.8467 52.5512C35.999 52.5512 31.2417 47.7926 31.2417 41.9437C31.2417 36.0962 35.9992 31.3389 41.8467 31.3389C47.6949 31.3389 52.4528 36.0962 52.4528 41.9437C52.453 47.7926 47.6951 52.5512 41.8467 52.5512ZM41.8467 34.776C37.8945 34.776 34.6792 37.9913 34.6792 41.9434C34.6792 45.897 37.8945 49.1133 41.8467 49.1133C45.7995 49.1133 49.0153 45.8968 49.0153 41.9434C49.0155 37.9913 45.7997 34.776 41.8467 34.776Z" fill="black"/>
<path d="M71.9789 20.6146H43.2561L38.0994 13.5068H66.8221L71.9789 20.6146Z" fill="#117D8D"/>
<path d="M15.9275 36.4609H9.79761C7.61428 36.4609 5.84448 34.6911 5.84448 32.5078C5.84448 30.3245 7.61428 28.5547 9.79761 28.5547H19.0215L15.9275 36.4609Z" fill="#117D8D"/>
<path d="M11.8594 55.9405C11.7477 55.9405 11.634 55.9302 11.5242 55.9079C11.4142 55.8855 11.3059 55.8529 11.2028 55.8099C11.098 55.767 10.9983 55.7137 10.9055 55.6518C10.8108 55.5882 10.7231 55.516 10.644 55.437C10.565 55.3579 10.4928 55.2702 10.4309 55.1757C10.3673 55.0829 10.3158 54.9832 10.2728 54.8801C10.2298 54.7752 10.1955 54.667 10.1731 54.5587C10.1508 54.447 10.1406 54.3335 10.1406 54.2218C10.1406 54.1101 10.1509 53.9966 10.1731 53.8866C10.1955 53.7766 10.2298 53.6684 10.2728 53.5652C10.3158 53.4604 10.3673 53.3607 10.4309 53.2679C10.4928 53.1734 10.565 53.0857 10.644 53.0066C10.7231 52.9276 10.8108 52.8554 10.9055 52.7935C10.9983 52.7316 11.0978 52.6784 11.2028 52.6354C11.3061 52.5924 11.4142 52.5598 11.5242 52.5374C11.7459 52.4927 11.9728 52.4927 12.1945 52.5374C12.3045 52.5598 12.4128 52.5924 12.5158 52.6354C12.6206 52.6784 12.7205 52.7316 12.8131 52.7935C12.9076 52.8554 12.9953 52.9276 13.0744 53.0066C13.1536 53.0857 13.2258 53.1734 13.2875 53.2679C13.3494 53.3607 13.4026 53.4604 13.4456 53.5652C13.4886 53.6684 13.5212 53.7766 13.5436 53.8866C13.5659 53.9966 13.578 54.1101 13.578 54.2218C13.578 54.3335 13.5659 54.447 13.5436 54.5587C13.5212 54.667 13.4886 54.7752 13.4456 54.8801C13.4026 54.9832 13.3494 55.0829 13.2875 55.1757C13.2258 55.2702 13.1536 55.3579 13.0744 55.437C12.9953 55.516 12.9076 55.5882 12.8131 55.6518C12.7203 55.7137 12.6206 55.767 12.5158 55.8099C12.4126 55.8529 12.3045 55.8855 12.1945 55.9079C12.0845 55.9302 11.9709 55.9405 11.8594 55.9405Z" fill="black"/>
<path d="M87.0425 19.9908C87.0205 19.9662 86.9978 19.942 86.9743 19.9185L79.8667 12.8121C79.2062 12.1518 78.3286 11.7881 77.3953 11.7881H34.7361C29.717 11.7881 24.9427 13.38 20.929 16.3919C17.3937 19.045 14.6554 22.719 13.1216 26.8364H9.79756C7.21634 26.8364 5.03233 28.5698 4.34809 30.9336C1.86003 31.5094 0 33.7437 0 36.4042V70.3526C0 74.096 3.04562 77.1417 6.78906 77.1417C10.5325 77.1417 13.5781 74.096 13.5781 70.3526V60.0697C13.5781 59.1204 12.8085 58.3509 11.8594 58.3509C10.9103 58.3509 10.1406 59.1204 10.1406 60.0697V70.3526C10.1406 72.2008 8.63706 73.7042 6.78906 73.7042C4.94106 73.7042 3.4375 72.2008 3.4375 70.3526V36.4042C3.4375 35.6108 3.86409 34.9152 4.49986 34.5347C5.3173 36.6644 7.38375 38.1802 9.79756 38.1802H10.1406V47.8624C10.1406 48.8117 10.9103 49.5812 11.8594 49.5812C12.8085 49.5812 13.5781 48.8117 13.5781 47.8624V43.9425C15.3921 48.1297 18.4351 51.7648 22.3633 54.2735C22.3735 54.2801 22.3838 54.2864 22.3941 54.2928C26.4885 60.7193 33.6779 64.9908 41.8466 64.9908C54.1315 64.9908 64.2024 55.3299 64.86 43.206L84.8176 36.7722C86.5987 36.6132 88 35.1129 88 33.2917V22.3928C88 21.4636 87.6356 20.6178 87.0425 19.9908ZM77.4362 15.2431L81.0896 18.8958H72.8552L70.1924 15.2256H77.3951C77.4104 15.2256 77.425 15.2318 77.4362 15.2431ZM65.9455 15.2256L68.6084 18.8958H44.1327L41.4698 15.2256H65.9455V15.2256ZM9.79756 34.7427C8.56556 34.7427 7.56319 33.7405 7.56319 32.5083C7.56319 31.2763 8.56556 30.2739 9.79756 30.2739H14.3117C14.3249 30.2743 14.3383 30.2744 14.3516 30.2744C14.3648 30.2744 14.378 30.2743 14.3911 30.2739H16.5029L14.7541 34.7427H13.5781V32.5083C13.5781 31.559 12.8085 30.7896 11.8594 30.7896C10.9103 30.7896 10.1406 31.559 10.1406 32.5083V34.7427H9.79756ZM15.4139 38.1802H15.9275C16.6349 38.1802 17.2703 37.7467 17.5282 37.0879L20.6223 29.1817C20.8292 28.6526 20.7616 28.0555 20.4413 27.5863C20.1211 27.1171 19.5896 26.8364 19.0216 26.8364H16.835C19.9622 19.8977 27.0153 15.2256 34.7361 15.2256H37.223L39.9424 18.9738C28.1213 19.9453 18.799 29.876 18.799 41.9436C18.799 43.6681 18.9894 45.3493 19.3504 46.9668C17.3437 44.4187 15.9747 41.3956 15.4139 38.1802ZM62.6481 40.3076C61.9381 40.5364 61.4567 41.1974 61.4567 41.9436C61.4567 52.7566 52.6596 61.5536 41.8466 61.5536C31.0336 61.5536 22.2363 52.7567 22.2363 41.9436C22.2363 31.1304 31.0334 22.3335 41.8466 22.3335H70.2601V37.8538L62.6481 40.3076ZM84.5625 33.2919C84.5625 33.3238 84.5371 33.3488 84.5042 33.3488C84.3251 33.3488 84.1472 33.3768 83.9769 33.4316L73.6978 36.7454V22.3333H84.5042C84.5195 22.3333 84.5335 22.3395 84.5439 22.3495C84.5446 22.35 84.5451 22.3507 84.5458 22.3514C84.5561 22.3622 84.5625 22.3768 84.5625 22.3929V33.2919Z" fill="black"/>
<path d="M52.8997 5.49277C51.9506 5.49277 51.1809 4.72329 51.1809 3.77402V0.577148C51.1809 -0.372117 51.9506 -1.1416 52.8997 -1.1416C53.8489 -1.1416 54.6184 -0.372117 54.6184 0.577148V3.77402C54.6184 4.72329 53.8489 5.49277 52.8997 5.49277Z" fill="black"/>
<path d="M46.2609 8.24294C45.8209 8.24294 45.3812 8.07519 45.0455 7.73952L42.7849 5.47902C42.1137 4.80785 42.1137 3.71954 42.7849 3.04837C43.4562 2.37719 44.5442 2.37702 45.2157 3.04837L47.4762 5.30886C48.1474 5.98004 48.1474 7.06835 47.4762 7.73952C47.1407 8.07502 46.7009 8.24294 46.2609 8.24294Z" fill="black"/>
<path d="M59.5388 8.24294C59.0988 8.24294 58.6591 8.07519 58.3234 7.73952C57.6523 7.06835 57.6523 5.98004 58.3234 5.30886L60.5838 3.04837C61.2551 2.37719 62.3431 2.37702 63.0144 3.04837C63.6856 3.71954 63.6856 4.80785 63.0144 5.47902L60.7541 7.73952C60.4184 8.07502 59.9788 8.24294 59.5388 8.24294Z" fill="black"/>
</svg>
