<svg width="68" height="70" viewBox="0 0 68 70" fill="none" xmlns="http://www.w3.org/2000/svg">
<path fill-rule="evenodd" clip-rule="evenodd" d="M62.0082 51.6802H52.7458C50.0175 51.6802 47.7814 53.9125 47.7814 56.6447V67.5815C47.9054 68.2908 48.4675 68.8489 49.1728 68.9767H65.5815C66.2908 68.8489 66.8488 68.2908 66.9729 67.5815V56.6447C66.9728 53.9125 64.7404 51.6802 62.0082 51.6802V51.6802Z" fill="#A5CDFF"/>
<path fill-rule="evenodd" clip-rule="evenodd" d="M56.0635 51.6802H52.746C50.0176 51.6802 47.7816 53.9125 47.7816 56.6447V67.5815C47.9056 68.2908 48.4677 68.8489 49.173 68.9767H52.4905C51.7851 68.8489 51.2271 68.2908 51.0991 67.5815V56.6447C51.0989 53.9125 53.3351 51.6802 56.0635 51.6802Z" fill="#8ABFFF"/>
<path fill-rule="evenodd" clip-rule="evenodd" d="M38.7943 51.6802H29.528C26.7996 51.6802 24.5674 53.9125 24.5674 56.6447V67.5815C24.6913 68.2908 25.2494 68.8489 25.9587 68.9767H42.3675C43.0727 68.8489 43.6308 68.2908 43.7588 67.5815V56.6447C43.7588 53.9125 41.5226 51.6802 38.7943 51.6802V51.6802Z" fill="#EBD2FF"/>
<path fill-rule="evenodd" clip-rule="evenodd" d="M32.8491 51.6802H29.5316C26.7995 51.6802 24.5672 53.9125 24.5672 56.6447V67.5815C24.6911 68.2908 25.2492 68.8489 25.9585 68.9767H29.276C28.5667 68.8489 28.0087 68.2908 27.8846 67.5815V56.6447C27.8845 53.9125 30.1168 51.6802 32.8491 51.6802Z" fill="#D7BEF0"/>
<path fill-rule="evenodd" clip-rule="evenodd" d="M15.5761 51.6802H6.31371C3.58535 51.6802 1.34917 53.9125 1.34917 56.6447V67.5815C1.47318 68.2908 2.03523 68.8489 2.74056 68.9767H19.1491C19.8584 68.8489 20.4165 68.2908 20.5405 67.5855V56.6448C20.5405 53.9125 18.3083 51.6802 15.5761 51.6802V51.6802Z" fill="#CCF49F"/>
<path fill-rule="evenodd" clip-rule="evenodd" d="M9.63086 51.6802H6.31351C3.58515 51.6802 1.34898 53.9125 1.34898 56.6447V67.5815C1.47298 68.2908 2.03503 68.8489 2.74037 68.9767H6.06168C5.35238 68.8489 4.79429 68.2908 4.66646 67.5815V56.6447C4.66646 53.9125 6.90264 51.6802 9.63086 51.6802Z" fill="#B3E59F"/>
<path fill-rule="evenodd" clip-rule="evenodd" d="M49.9589 28.1558H37.8285L34.9491 33.1436C34.5654 33.8064 33.7709 33.8297 33.3717 33.1436L30.4963 28.1558H18.3621L12.9053 33.415C12.3047 33.9925 11.6653 33.6281 11.5876 32.9422L10.9598 27.5669C5.41411 25.8616 1.34851 20.6801 1.34851 14.5916C1.34851 7.13123 7.45245 1.02728 14.9166 1.02728H53.4081C60.8685 1.02728 66.9724 7.13123 66.9724 14.5916C66.9724 20.6801 62.9108 25.8617 57.3611 27.5669L56.7372 32.9422C56.6481 33.7057 55.9389 33.915 55.4195 33.415L49.9589 28.1558Z" fill="#ECF4FF"/>
<path fill-rule="evenodd" clip-rule="evenodd" d="M34.1629 19.827H37.1082C37.1044 16.6685 40.1931 15.4322 40.1931 11.6575C40.1931 8.32839 37.4918 5.62711 34.1629 5.62711C30.8299 5.62711 28.1326 8.32839 28.1326 11.6575C28.1326 15.4323 31.2175 16.6685 31.2175 19.827H34.1629Z" fill="#FFE5A0"/>
<path fill-rule="evenodd" clip-rule="evenodd" d="M31.2177 19.8271V21.9549C31.2177 22.9393 32.0238 23.7454 33.0082 23.7454H35.3141C36.3024 23.7454 37.1084 22.9393 37.1084 21.9549V19.8271H31.2177Z" fill="#477B9E"/>
<path fill-rule="evenodd" clip-rule="evenodd" d="M5.70141 47.1963C5.70141 50.0797 8.06158 52.4401 10.9448 52.4401C13.8322 52.4401 16.1924 50.0799 16.1924 47.1963V41.573C16.1924 39.9608 14.8709 38.6393 13.2547 38.6393H8.63525C7.02306 38.6393 5.70154 39.9609 5.70154 41.573V47.1963H5.70141Z" fill="#FFCBBE"/>
<path fill-rule="evenodd" clip-rule="evenodd" d="M52.1145 47.1767C52.1145 50.0717 54.4824 52.4396 57.3774 52.4396C60.2724 52.4396 62.6404 50.0717 62.6404 47.1767C62.6404 45.297 62.6404 43.4173 62.6404 41.5377C62.6404 39.9177 61.315 38.5885 59.6949 38.5885H52.8974C52.3587 38.5885 52.1144 38.9024 52.1144 39.3752C52.1145 41.9757 52.1145 44.5763 52.1145 47.1767V47.1767Z" fill="#C68B87"/>
<path fill-rule="evenodd" clip-rule="evenodd" d="M16.1924 41.5726V45.0218L12.6036 43.2662C12.1193 43.0298 11.6503 43.0066 11.162 43.1733L5.70141 45.022V41.5727C5.70141 39.9605 7.02293 38.639 8.63512 38.639H13.2546C14.8709 38.6388 16.1924 39.9604 16.1924 41.5726V41.5726Z" fill="#FFE5A0"/>
<path fill-rule="evenodd" clip-rule="evenodd" d="M62.6404 41.538V43.2355H52.1145V39.3755C52.1145 38.9027 52.3587 38.5888 52.8975 38.5888H59.6949C61.315 38.5888 62.6404 39.918 62.6404 41.538V41.538Z" fill="#477B9E"/>
<path fill-rule="evenodd" clip-rule="evenodd" d="M28.9001 47.1767C28.9001 50.0717 31.2679 52.4396 34.1629 52.4396C37.0579 52.4396 39.4258 50.0717 39.4258 47.1767V41.5377C39.4258 39.9177 38.1004 38.5885 36.4804 38.5885H31.8454C30.2254 38.5885 28.9001 39.9179 28.9001 41.5377V47.1767Z" fill="#FFCBBE"/>
<path fill-rule="evenodd" clip-rule="evenodd" d="M39.4258 41.538V43.5842C37.9416 44.1385 36.7012 43.6734 35.9883 43.2664C35.434 42.9525 35.3449 42.8904 34.7947 43.3711C32.2679 45.584 28.9001 44.3555 28.9001 44.3555V41.538C28.9001 39.918 30.2254 38.5888 31.8454 38.5888H36.4804C38.1004 38.5888 39.4258 39.918 39.4258 41.538V41.538Z" fill="#C68B87"/>
<path fill-rule="evenodd" clip-rule="evenodd" d="M55.4315 43.2356V47.1771C55.4315 49.4908 56.9467 51.4713 59.0356 52.1688C58.5162 52.3433 57.9582 52.4401 57.3768 52.4401C54.4818 52.4401 52.114 50.0721 52.114 47.1771V43.2356H55.4315Z" fill="#BD7D79"/>
<path fill-rule="evenodd" clip-rule="evenodd" d="M52.8971 38.5888H56.2183C55.6758 38.5888 55.4316 38.9027 55.4316 39.3755V43.2355H52.1141V39.3755C52.1142 38.9026 52.3584 38.5888 52.8971 38.5888Z" fill="#365E7D"/>
<path fill-rule="evenodd" clip-rule="evenodd" d="M32.2175 47.1767C32.2175 49.0797 33.2407 50.7578 34.7675 51.6801C35.097 51.8816 35.4496 52.0445 35.8218 52.1685C35.2986 52.3429 34.7405 52.4397 34.163 52.4397C33.1708 52.4397 32.2407 52.1607 31.4462 51.6801C29.9232 50.7578 28.9001 49.0797 28.9001 47.1767V44.3554C28.9001 44.3554 30.4386 44.9173 32.2175 44.5996V47.1767Z" fill="#F7BEAF"/>
<path fill-rule="evenodd" clip-rule="evenodd" d="M35.1631 38.5888C33.5431 38.5888 32.2176 39.9181 32.2176 41.538V44.5998C30.4388 44.9175 28.9003 44.3556 28.9003 44.3556V41.5381C28.9003 39.9181 30.2256 38.5889 31.8456 38.5889H35.1631V38.5888Z" fill="#BD7D79"/>
<path fill-rule="evenodd" clip-rule="evenodd" d="M9.01886 47.1961C9.01886 49.0913 10.0381 50.7578 11.5535 51.6801C11.8828 51.8816 12.2354 52.0444 12.6038 52.1684C12.0844 52.3429 11.5264 52.4397 10.945 52.4397C9.95675 52.4397 9.03062 52.1606 8.23601 51.6801C6.72075 50.7578 5.70151 49.0912 5.70151 47.1961V45.022L9.01886 43.898V47.1961Z" fill="#F7BEAF"/>
<path fill-rule="evenodd" clip-rule="evenodd" d="M8.63516 38.6393H11.9526C10.3403 38.6393 9.01879 39.9609 9.01879 41.573V43.8983L5.70145 45.0222V41.573C5.70145 39.9608 7.02297 38.6393 8.63516 38.6393V38.6393Z" fill="#F2CE7E"/>
<path fill-rule="evenodd" clip-rule="evenodd" d="M18.2347 24.8382H56.7261C59.6133 24.8382 62.299 23.9236 64.5042 22.3695C62.7835 24.8149 60.276 26.6714 57.3617 27.5666L56.7378 32.942C56.6487 33.7054 55.9395 33.9147 55.4201 33.4147L49.9595 28.1556H37.8291L34.9497 33.1434C34.566 33.8062 33.7716 33.8294 33.3723 33.1434L30.4969 28.1556H18.3627L12.9059 33.4147C12.3053 33.9922 11.6659 33.6279 11.5882 32.942L10.9604 27.5666C5.41472 25.8613 1.34911 20.6798 1.34911 14.5913C1.34911 10.0182 3.64339 5.95273 7.13518 3.49576C5.58124 5.70089 4.66645 8.3866 4.66645 11.274C4.66659 18.7342 10.7704 24.8382 18.2347 24.8382V24.8382Z" fill="#DDEAFB"/>
<path fill-rule="evenodd" clip-rule="evenodd" d="M31.4501 11.6575C31.4501 15.4323 34.5389 16.6685 34.535 19.827H31.2176C31.2176 16.6685 28.1327 15.4322 28.1327 11.6575C28.1327 8.32839 30.83 5.62711 34.163 5.62711C34.7365 5.62711 35.2946 5.70845 35.8218 5.8557C33.2948 6.57662 31.4501 8.90193 31.4501 11.6575V11.6575Z" fill="#F2CE7E"/>
<path d="M34.1631 20.8544H36.0814V21.955C36.0814 22.1643 35.9962 22.3541 35.8566 22.4937C35.7171 22.6332 35.5233 22.7222 35.314 22.7222H33.0081C32.7988 22.7222 32.6088 22.6331 32.4694 22.4937C32.3298 22.3542 32.2408 22.1643 32.2408 21.955V20.8544H34.1631ZM6.70898 45.7313L11.8402 43.9912L15.1847 45.6306V47.1769C15.1847 48.3395 14.7081 49.4015 13.9368 50.1688C13.1695 50.9361 12.1114 51.4128 10.9448 51.4128C9.78215 51.4128 8.72025 50.9361 7.95299 50.1688C7.18572 49.4014 6.70884 48.3395 6.70884 47.1769V45.7313H6.70898ZM15.1849 43.3556L12.4178 42.0031C12.1698 41.8597 11.8675 41.8209 11.5769 41.9218L6.70912 43.5688V41.538C6.70912 41.011 6.92623 40.5304 7.275 40.1816C7.61994 39.8329 8.10051 39.6158 8.62756 39.6158H13.2626C13.7896 39.6158 14.2703 39.8327 14.6191 40.1816C14.9679 40.5304 15.185 41.011 15.185 41.538V43.3556H15.1849ZM61.6171 42.2085H53.1414V39.6158H59.6947C60.2218 39.6158 60.7024 39.8327 61.0513 40.1816C61.4 40.5304 61.6171 41.011 61.6171 41.538V42.2085ZM53.1413 44.2626H61.6171V47.1769C61.6171 48.3395 61.1404 49.4015 60.3692 50.1688C59.6019 50.9361 58.5438 51.4128 57.3772 51.4128C56.2146 51.4128 55.1527 50.9361 54.3854 50.1688C53.618 49.4014 53.1413 48.3395 53.1413 47.1769V44.2626ZM29.9233 45.6306C31.3338 45.8244 33.5856 45.7816 35.469 44.1424C36.1318 44.5222 37.1587 44.9369 38.3989 44.8477V47.1769C38.3989 48.3395 37.9223 49.4015 37.1549 50.1688C36.3835 50.9361 35.3256 51.4128 34.1629 51.4128C32.9964 51.4128 31.9384 50.9361 31.171 50.1688C30.3997 49.4014 29.9231 48.3395 29.9231 47.1769V45.6306H29.9233ZM38.3989 42.7937C37.5347 42.906 36.6704 42.6076 36.0155 42.0457C35.5892 41.6737 34.9459 41.7201 34.5738 42.1464C33.074 43.875 30.9889 43.7702 29.9231 43.5687V41.5379C29.9231 41.0108 30.1401 40.5303 30.4889 40.1815C30.8378 39.8327 31.3182 39.6156 31.8454 39.6156H36.4804C37.0075 39.6156 37.4842 39.8326 37.833 40.1815C38.1819 40.5303 38.3989 41.0108 38.3989 41.5379V42.7937ZM51.0912 47.1769C51.0912 48.4713 51.4866 49.6804 52.1647 50.6842C50.7464 50.8199 49.4713 51.4593 48.514 52.4128C47.429 53.4979 46.7584 54.9977 46.7584 56.6449V68.9768C46.7584 69.5427 47.2157 70 47.7815 70C54.1799 70 60.5784 70 66.973 70C67.5387 70 68 69.5427 68 68.9768V65.1323C68 64.5664 67.5387 64.1092 66.973 64.1092C66.4071 64.1092 65.9499 64.5665 65.9499 65.1323V67.9498H63.9772V58.5594C63.9772 57.9897 63.516 57.5323 62.9502 57.5323C62.3843 57.5323 61.9231 57.9897 61.9231 58.5594V67.9498H52.8312V58.5594C52.8312 57.9897 52.3739 57.5323 51.8042 57.5323C51.2383 57.5323 50.7811 57.9897 50.7811 58.5594V67.9498H48.8084V56.6448C48.8084 55.5635 49.2501 54.5791 49.9632 53.8621C50.6802 53.149 51.6646 52.7073 52.7457 52.7073H54.3891C55.2805 53.1878 56.2997 53.4629 57.377 53.4629C58.4583 53.4629 59.4737 53.1877 60.3649 52.7073H62.0084C63.0937 52.7073 64.0781 53.149 64.7911 53.8621C65.5043 54.5791 65.9499 55.5635 65.9499 56.6448V60.4893C65.9499 61.0552 66.4072 61.5124 66.973 61.5124C67.5387 61.5124 68 61.055 68 60.4893V56.6448C68 54.9976 67.3256 53.4978 66.2404 52.4126C65.2833 51.4592 64.0082 50.8199 62.5898 50.6841C63.268 49.6803 63.6672 48.4712 63.6672 47.1767V43.2353V41.5378C63.6672 40.441 63.2215 39.449 62.5008 38.732C61.78 38.0111 60.7878 37.5654 59.6949 37.5654H52.1145C51.5486 37.5654 51.0914 38.0227 51.0914 38.5886V43.2353V47.1769H51.0912ZM4.65888 47.1769C4.65888 48.4713 5.05428 49.6804 5.73254 50.6842C4.31408 50.8199 3.03904 51.4593 2.08174 52.4128C0.996599 53.4979 0.32613 54.9977 0.32613 56.6449V68.9768C0.32613 69.5427 0.783454 70 1.3492 70C7.74777 70 14.1462 70 20.5407 70C21.1066 70 21.5677 69.5427 21.5677 68.9768V65.1323C21.5677 64.5664 21.1066 64.1092 20.5407 64.1092C19.9748 64.1092 19.5176 64.5665 19.5176 65.1323V67.9498H17.5449V58.5594C17.5449 57.9897 17.0837 57.5323 16.5179 57.5323C15.952 57.5323 15.4908 57.9897 15.4908 58.5594V67.9498H6.3989V58.5594C6.3989 57.9897 5.94158 57.5323 5.37187 57.5323C4.80599 57.5323 4.34881 57.9897 4.34881 58.5594V67.9498H2.37609V56.6448C2.37609 55.5635 2.81797 54.5791 3.53096 53.8621C4.24791 53.149 5.23228 52.7073 6.31373 52.7073H7.95695C8.84836 53.1878 9.8676 53.4629 10.9449 53.4629C12.0262 53.4629 13.0417 53.1877 13.9329 52.7073H15.5763C16.6613 52.7073 17.6458 53.149 18.3588 53.8621C19.0719 54.5791 19.5176 55.5635 19.5176 56.6448V60.4893C19.5176 61.0552 19.9749 61.5124 20.5407 61.5124C21.1064 61.5124 21.5677 61.055 21.5677 60.4893V56.6448C21.5677 54.9976 20.8933 53.4978 19.8083 52.4126C18.851 51.4592 17.5761 50.8199 16.1576 50.6841C16.8357 49.6803 17.235 48.4712 17.235 47.1767V41.5378C17.235 40.441 16.7893 39.449 16.0685 38.732C15.3477 38.0111 14.3555 37.5654 13.2626 37.5654H8.62756C7.53477 37.5654 6.5426 38.0111 5.82168 38.732C5.10473 39.449 4.65902 40.445 4.65902 41.5378V47.1769H4.65888ZM27.8732 47.1769C27.8732 48.4713 28.2723 49.6804 28.9467 50.6842C27.5321 50.8199 26.2532 51.4593 25.2999 52.4128C24.2146 53.4979 23.5404 54.9977 23.5404 56.6449V68.9768C23.5404 69.5427 23.9978 70 24.5675 70C30.9619 70 37.3604 70 43.7588 70C44.3247 70 44.7819 69.5427 44.7819 68.9768V65.1323C44.7819 64.5664 44.3246 64.1092 43.7588 64.1092C43.1929 64.1092 42.7318 64.5665 42.7318 65.1323V67.9498H40.7592V58.5594C40.7592 57.9897 40.3017 57.5323 39.736 57.5323C39.1664 57.5323 38.709 57.9897 38.709 58.5594V67.9498H29.6132V58.5594C29.6132 57.9897 29.156 57.5323 28.5903 57.5323C28.0245 57.5323 27.5632 57.9897 27.5632 58.5594V67.9498H25.5905V56.6448C25.5905 55.5635 26.0362 54.5791 26.7492 53.8621C27.4623 53.149 28.4467 52.7073 29.5279 52.7073H31.1749C32.0663 53.1878 33.0818 53.4629 34.1629 53.4629C35.2404 53.4629 36.2596 53.1877 37.147 52.7073H38.7941C39.8754 52.7073 40.8597 53.149 41.5728 53.8621C42.2898 54.5791 42.7316 55.5635 42.7316 56.6448V60.4893C42.7316 61.0552 43.1928 61.5124 43.7587 61.5124C44.3246 61.5124 44.7817 61.055 44.7817 60.4893V56.6448C44.7817 54.9976 44.1114 53.4978 43.0261 52.4126C42.0688 51.4592 40.7939 50.8199 39.3755 50.6841C40.0537 49.6803 40.449 48.4712 40.449 47.1767V41.5378C40.449 40.441 40.0031 39.449 39.2863 38.732C38.5654 38.0111 37.5734 37.5654 36.4804 37.5654H31.8454C30.7525 37.5654 29.7565 38.0111 29.0395 38.732C28.3189 39.449 27.8732 40.441 27.8732 41.5378V47.1769ZM49.9325 27.1327H37.8293C37.4224 27.1327 37.0737 27.369 36.907 27.7102C35.9925 29.2953 35.0777 30.8804 34.1632 32.4655C33.2369 30.8571 32.3068 29.2528 31.3806 27.6482C31.1983 27.3305 30.8612 27.1328 30.497 27.1328H18.3628C18.0605 27.1328 17.7892 27.2646 17.5993 27.4739L12.5495 32.3377L11.9798 27.4507C11.9295 27.0128 11.6116 26.6716 11.2084 26.5709C8.63521 25.7685 6.4067 24.1525 4.83334 22.0287C3.29088 19.9474 2.37609 17.3703 2.37609 14.5914C2.37609 11.1422 3.78676 8.01076 6.05793 5.7359C8.33279 3.4609 11.468 2.05023 14.9173 2.05023H53.4088C56.8581 2.05023 59.9894 3.4609 62.2642 5.7359C64.5392 8.01076 65.9499 11.1461 65.9499 14.5914C65.9499 17.3703 65.0353 19.9474 63.4927 22.0287C61.9077 24.1679 59.6599 25.7917 57.0633 26.5902C56.6292 26.722 56.3889 27.0707 56.3386 27.5047L55.7767 32.3375L50.6688 27.4195C50.4712 27.2296 50.1999 27.1327 49.9325 27.1327V27.1327ZM38.4184 29.1829H49.5527L55.8077 35.2093C55.9666 35.3798 56.1875 35.4962 56.4395 35.5232C57.0014 35.5891 57.509 35.1861 57.5711 34.6242L58.3035 28.3303C61.0513 27.342 63.4269 25.5515 65.136 23.2456C66.9341 20.8157 68 17.8198 68 14.5914C68 10.5764 66.3568 6.92959 63.7136 4.28654C61.0707 1.64322 57.4238 0 53.4088 0H14.9174C10.9024 0 7.25558 1.64322 4.60871 4.28641C1.96566 6.92945 0.326267 10.5764 0.326267 14.5913C0.326267 17.8196 1.39213 20.8154 3.19025 23.2455C4.89937 25.5514 7.27117 27.3418 10.0188 28.3302L10.7512 34.6086C10.7783 34.8333 10.8714 35.0504 11.0341 35.217C11.4255 35.624 12.0729 35.6355 12.4796 35.244L18.7735 29.1828H29.9077C31.0317 31.1283 32.1517 33.0738 33.2756 35.0193C33.3646 35.1704 33.4926 35.2983 33.6515 35.3913C34.1438 35.6742 34.7676 35.5037 35.0467 35.0155C36.1706 33.0699 37.2945 31.1284 38.4184 29.1829V29.1829ZM38.1276 19.7497C38.1548 18.5832 38.7634 17.657 39.3988 16.692C40.2903 15.3394 41.2204 13.9288 41.2204 11.6577C41.2204 9.7084 40.4297 7.94486 39.1508 6.66996C37.8758 5.39109 36.1086 4.60045 34.1631 4.60045C32.2137 4.60045 30.4503 5.39109 29.1715 6.66996C27.8964 7.945 27.1058 9.7084 27.1058 11.6577C27.1058 13.9288 28.036 15.3394 28.9235 16.692C29.5589 17.657 30.1676 18.5832 30.1945 19.7497L30.1908 21.955C30.1908 22.73 30.5086 23.4354 31.02 23.9431C31.5278 24.4547 32.2331 24.7725 33.0082 24.7725H35.3141C36.0892 24.7725 36.7945 24.4546 37.3061 23.9431C37.8176 23.4355 38.1316 22.73 38.1316 21.955L38.1276 19.7497ZM36.1745 18.8002H32.1478C31.9229 17.5291 31.2875 16.5679 30.6287 15.568C29.9118 14.475 29.1561 13.3279 29.1561 11.6576C29.1561 10.274 29.7179 9.02221 30.6211 8.11918C31.5279 7.21232 32.7797 6.65027 34.1632 6.65027C35.543 6.65027 36.7946 7.21219 37.7016 8.11918C38.6085 9.02221 39.1666 10.274 39.1666 11.6576C39.1666 13.3279 38.4146 14.475 37.694 15.568C37.0387 16.568 36.4032 17.5291 36.1745 18.8002V18.8002Z" fill="black"/>
</svg>
