<svg width="73" height="72" viewBox="0 0 73 72" fill="none" xmlns="http://www.w3.org/2000/svg">
<g clip-path="url(#clip0)">
<path d="M44.1281 64.4668V66.2514C44.1281 66.4081 44.1197 66.5649 44.1029 66.7175C43.8705 68.817 42.0901 70.4504 39.929 70.4504H33.4905C31.3294 70.4504 29.549 68.817 29.3167 66.7175C29.2999 66.5649 29.2915 66.4081 29.2915 66.2514V64.4668C29.8472 64.7145 30.463 64.8517 31.1111 64.8517H42.3085C42.9565 64.8517 43.5724 64.7145 44.1281 64.4668Z" fill="#50758D"/>
<path d="M36.5 9.17669C35.9201 9.17669 35.4502 8.70682 35.4502 8.12693V1.04976C35.4502 0.469871 35.9201 0 36.5 0C37.0798 0 37.5497 0.469871 37.5497 1.04976V8.12693C37.5497 8.70682 37.0797 9.17669 36.5 9.17669Z" fill="#FFE7C9"/>
<path d="M17.6568 16.9818C17.3881 16.9818 17.1195 16.8794 16.9144 16.6745L11.91 11.6699C11.5 11.2598 11.5 10.5953 11.91 10.1853C12.3203 9.77533 12.9848 9.77561 13.3946 10.1853L18.399 15.1898C18.809 15.5999 18.809 16.2645 18.399 16.6745C18.194 16.8794 17.9253 16.9818 17.6568 16.9818Z" fill="#FFE7C9"/>
<path d="M9.85144 35.825H2.77412C2.19424 35.825 1.72437 35.3551 1.72437 34.7752C1.72437 34.1953 2.19424 33.7255 2.77412 33.7255H9.8513C10.4312 33.7255 10.9011 34.1953 10.9011 34.7752C10.9011 35.3551 10.4312 35.825 9.85144 35.825Z" fill="#FFE7C9"/>
<path d="M12.6524 59.6729C12.3838 59.6729 12.1151 59.5704 11.91 59.3655C11.5 58.9554 11.5 58.2908 11.91 57.8809L16.9144 52.8765C17.3245 52.4666 17.9891 52.4666 18.399 52.8765C18.809 53.2866 18.809 53.9511 18.399 54.3611L13.3946 59.3655C13.1896 59.5704 12.921 59.6729 12.6524 59.6729Z" fill="#FFE7C9"/>
<path d="M60.3475 59.6729C60.0789 59.6729 59.8101 59.5704 59.6051 59.3655L54.6007 54.3611C54.1907 53.951 54.1907 53.2864 54.6007 52.8765C55.0108 52.4666 55.6754 52.4666 56.0853 52.8765L61.0897 57.8809C61.4997 58.291 61.4997 58.9555 61.0897 59.3655C60.8848 59.5704 60.6161 59.6729 60.3475 59.6729Z" fill="#FFE7C9"/>
<path d="M70.2256 35.825H63.1484C62.5685 35.825 62.0986 35.3551 62.0986 34.7752C62.0986 34.1953 62.5685 33.7255 63.1484 33.7255H70.2256C70.8054 33.7255 71.2753 34.1953 71.2753 34.7752C71.2753 35.3551 70.8053 35.825 70.2256 35.825Z" fill="#FFE7C9"/>
<path d="M55.3431 16.9818C55.0745 16.9818 54.8057 16.8794 54.6007 16.6745C54.1907 16.2644 54.1907 15.5998 54.6007 15.1898L59.6051 10.1853C60.0152 9.77547 60.6798 9.77547 61.0897 10.1853C61.4997 10.5954 61.4997 11.26 61.0897 11.6699L56.0853 16.6745C55.8804 16.8794 55.6117 16.9818 55.3431 16.9818Z" fill="#FFE7C9"/>
<path d="M36.7098 63.4518C36.7098 63.4518 29.8472 64.7143 29.2915 64.4665V66.2511C29.2915 66.4079 29.2999 66.5647 29.3167 66.7172C29.549 68.8167 31.3294 70.4502 33.4905 70.4502H35.3101C33.4842 70.4502 31.9305 69.2841 31.3521 67.6563C31.2543 67.3809 31.4547 67.0909 31.7468 67.0909H42.3085C42.9467 67.0909 43.5542 66.958 44.1029 66.7172C44.1197 66.5647 44.1281 66.4079 44.1281 66.2511V64.4665C43.5724 64.7143 36.7098 63.4518 36.7098 63.4518Z" fill="#2B597F"/>
<path d="M46.7876 60.3726C46.7876 62.1978 45.6945 63.7696 44.1283 64.4667C43.5726 64.7144 42.9567 64.8516 42.3087 64.8516H31.1113C30.4632 64.8516 29.8474 64.7144 29.2917 64.4667C27.7255 63.7696 26.6323 62.1978 26.6323 60.3726C26.6323 60.3726 26.5666 53.8305 26.554 53.6598V53.6542L36.71 52.2545L46.7499 53.6542L46.7876 60.3726Z" fill="#50758D"/>
<path d="M34.6105 64.8516H31.1113C30.4632 64.8516 29.8474 64.7144 29.2917 64.4667C27.7255 63.7696 26.6323 62.1978 26.6323 60.3726C26.6323 60.3726 26.5666 53.8305 26.554 53.6598V53.6542H30.0531V53.6598C30.0657 53.8305 30.1315 60.3726 30.1315 60.3726C30.1315 62.1978 31.2247 63.7696 32.7909 64.4667C33.3464 64.7144 33.9623 64.8516 34.6105 64.8516Z" fill="#2B597F"/>
<path d="M46.7876 60.3025H43.2185C42.639 60.3025 42.1687 59.8322 42.1687 59.2528C42.1687 58.6733 42.639 58.203 43.2185 58.203H46.7764L46.782 59.2528L46.7876 60.3025Z" fill="#2B597F"/>
<path d="M39.3692 59.2528C39.3692 59.8322 38.8989 60.3025 38.3194 60.3025H26.6307L26.6069 58.203H38.3194C38.8989 58.203 39.3692 58.6733 39.3692 59.2528Z" fill="#2B597F"/>
<path d="M36.5179 12.6674C36.5178 12.6674 36.5176 12.6674 36.5175 12.6674L36.5179 12.667C25.7081 12.5007 16.6175 21.9222 16.8119 32.6533C16.8119 38.1275 18.98 43.0893 22.4932 46.6991C24.5633 48.828 26.3549 50.7959 26.5536 53.6541L46.7495 53.6876C46.8629 50.7455 48.5355 48.758 50.6196 46.5815C54.0656 42.9829 56.1875 38.0701 56.1875 32.6533C56.1874 21.6211 47.3836 12.6772 36.5179 12.6674Z" fill="#FAD207"/>
<path d="M46.7495 53.682V53.6876L26.5536 53.654C26.3549 50.7959 24.5633 48.8279 22.4932 46.699C18.98 43.0893 16.8119 38.1274 16.8119 32.6533C16.6173 21.922 25.7082 12.5008 36.5179 12.6673C37.0638 12.6673 37.6041 12.6911 38.1388 12.7345C28.1759 13.6079 20.1277 22.5504 20.3111 32.6533C20.3111 38.1274 22.4792 43.0893 25.9924 46.699C28.0625 48.8279 29.8541 50.7959 30.0528 53.654L46.7495 53.682Z" fill="#FAA515"/>
<path d="M36.9942 42.6571C36.5753 43.1967 35.939 43.5232 35.2564 43.5486C35.2275 43.5497 35.1987 43.5503 35.17 43.5503C34.5184 43.5503 33.8956 43.2747 33.4568 42.7893L26.8783 35.5111C26.0231 34.5648 26.0969 33.1045 27.0432 32.2491C27.9894 31.3938 29.4495 31.4676 30.3051 32.4139L35.036 37.648L42.5841 27.9271C43.3662 26.9197 44.8171 26.7371 45.8245 27.5194C46.8319 28.3016 47.0145 29.7525 46.2322 30.7599L36.9942 42.6571Z" fill="#FAA515"/>
<path d="M36.5 9.17669C37.0798 9.17669 37.5497 8.70682 37.5497 8.12693V1.04976C37.5497 0.469871 37.0798 0 36.5 0C35.9201 0 35.4502 0.469871 35.4502 1.04976V8.12693C35.4502 8.70682 35.9201 9.17669 36.5 9.17669Z" fill="black"/>
<path d="M16.9144 16.6745C17.3245 17.0843 17.9889 17.0843 18.399 16.6745C18.809 16.2644 18.809 15.5998 18.399 15.1898L13.3946 10.1853C12.9847 9.77561 12.3201 9.77533 11.91 10.1853C11.5 10.5954 11.5 11.26 11.91 11.6699L16.9144 16.6745Z" fill="black"/>
<path d="M9.85144 33.7255H2.77412C2.19424 33.7255 1.72437 34.1953 1.72437 34.7752C1.72437 35.3551 2.19424 35.825 2.77412 35.825H9.8513C10.4312 35.825 10.9011 35.3551 10.9011 34.7752C10.9011 34.1953 10.4312 33.7255 9.85144 33.7255Z" fill="black"/>
<path d="M16.9144 52.876L11.91 57.8804C11.5 58.2905 11.5 58.9551 11.91 59.365C12.3201 59.7748 12.9845 59.7748 13.3946 59.365L18.399 54.3606C18.809 53.9505 18.809 53.286 18.399 52.876C17.9891 52.4663 17.3245 52.4663 16.9144 52.876Z" fill="black"/>
<path d="M56.0853 52.8761C55.6752 52.4663 55.0107 52.4663 54.6007 52.8761C54.1907 53.2862 54.1907 53.9508 54.6007 54.3607L59.6051 59.3651C60.0152 59.775 60.6796 59.775 61.0897 59.3651C61.4997 58.955 61.4997 58.2905 61.0897 57.8805L56.0853 52.8761Z" fill="black"/>
<path d="M70.2256 33.7255H63.1484C62.5685 33.7255 62.0986 34.1953 62.0986 34.7752C62.0986 35.3551 62.5685 35.825 63.1484 35.825H70.2256C70.8054 35.825 71.2753 35.3551 71.2753 34.7752C71.2753 34.1953 70.8053 33.7255 70.2256 33.7255Z" fill="black"/>
<path d="M59.6051 10.1853L54.6007 15.1898C54.1907 15.5999 54.1907 16.2645 54.6007 16.6745C55.0108 17.0843 55.6752 17.0843 56.0853 16.6745L61.0897 11.6699C61.4997 11.2598 61.4997 10.5953 61.0897 10.1853C60.6796 9.77547 60.015 9.77547 59.6051 10.1853Z" fill="black"/>
<path d="M57.2379 32.6533C57.2379 21.0539 47.935 11.6172 36.5001 11.6172C32.4945 11.6172 28.6067 12.7779 25.2573 14.9739C21.9986 17.1105 19.4008 20.1163 17.7448 23.6663C17.4998 24.1917 17.7271 24.8164 18.2524 25.0615C18.7782 25.3068 19.4025 25.0793 19.6476 24.554C22.7183 17.9706 29.3333 13.7167 36.5001 13.7167C46.7773 13.7167 55.1384 22.2116 55.1384 32.6533C55.1384 37.6129 53.2643 42.3018 49.8614 45.856C47.9 47.9044 46.2305 49.8618 45.8009 52.6043H27.4737C26.9325 49.7572 24.9904 47.7597 23.2453 45.9663C19.7737 42.3986 17.8617 37.6705 17.8617 32.6533C17.8617 31.4145 17.9803 30.1755 18.2139 28.9705C18.3243 28.4014 17.9524 27.8505 17.3832 27.74C16.8141 27.6304 16.2632 28.0016 16.1527 28.5709C15.8935 29.9072 15.7622 31.2807 15.7622 32.6533C15.7622 38.2205 17.8854 43.4686 21.7406 47.4305C23.9548 49.7058 25.5221 51.522 25.5221 54.1841C25.5221 54.1933 25.5223 54.2028 25.5226 54.2121L25.5827 60.3725C25.5827 62.3711 26.6489 64.1253 28.2421 65.0967V66.2511C28.2421 69.1454 30.5967 71.4999 33.4909 71.4999H39.9294C42.8237 71.4999 45.1782 69.1454 45.1782 66.2511V65.0967C46.7714 64.1253 47.8376 62.3711 47.8376 60.3725C47.8376 60.3725 47.8302 53.5104 47.8162 53.442C48.0153 51.0091 49.49 49.2798 51.3779 47.3079C55.1566 43.361 57.2379 38.1564 57.2379 32.6533ZM43.0785 66.2511C43.0785 67.9875 41.6657 69.4004 39.9293 69.4004H33.4908C31.7543 69.4004 30.3415 67.9875 30.3415 66.2511V65.8465C30.5933 65.8817 30.85 65.9012 31.1113 65.9012H42.3087C42.57 65.9012 42.8267 65.8816 43.0785 65.8465V66.2511ZM42.3087 63.8017H31.1113C29.2204 63.8017 27.6821 62.2634 27.6821 60.3725V60.3025H38.3196C38.8995 60.3025 39.3694 59.8326 39.3694 59.2527C39.3694 58.6728 38.8995 58.203 38.3196 58.203H27.6821V54.7038H45.7055L45.7379 58.203H43.2185C42.6386 58.203 42.1688 58.6728 42.1688 59.2527C42.1688 59.8326 42.6386 60.3025 43.2185 60.3025H45.7379V60.3725C45.7379 62.2634 44.1995 63.8017 42.3087 63.8017Z" fill="black"/>
<path d="M43.3247 32.7923C42.9692 33.2502 43.0522 33.9097 43.51 34.2652C43.9677 34.6209 44.6272 34.538 44.9829 34.0799L47.0611 31.4036C47.6115 30.6949 47.8528 29.8144 47.7408 28.924C47.6287 28.0337 47.1767 27.2404 46.4679 26.69C45.7593 26.1397 44.8782 25.897 43.9884 26.0105C43.0981 26.1225 42.3047 26.5744 41.7545 27.2832L34.9746 36.0149L31.0836 31.7097C29.8413 30.3358 27.7129 30.2285 26.3391 31.4702C25.6734 32.0719 25.2819 32.8967 25.2366 33.793C25.1913 34.689 25.4977 35.5491 26.0993 36.215L32.6779 43.4933C34.0022 45.0293 36.6188 44.9351 37.8233 43.3009L41.9782 37.95C42.3337 37.4922 42.2507 36.8326 41.7929 36.4771C41.3351 36.1216 40.6757 36.2043 40.32 36.6624L36.1651 42.0134C35.7141 42.6262 34.73 42.6618 34.2356 42.0855L27.6572 34.8072C27.1913 34.2918 27.2316 33.4937 27.7471 33.0279C28.2622 32.5626 29.0605 32.6024 29.5263 33.1179L34.2572 38.3521C34.6695 38.8302 35.4892 38.8028 35.8651 38.2919L43.4131 28.571C43.8172 28.0277 44.6551 27.9223 45.1807 28.3486C45.7241 28.7529 45.8294 29.59 45.4031 30.1163L43.3247 32.7923Z" fill="black"/>
</g>
<defs>
<clipPath id="clip0">
<rect width="71.5" height="71.5" fill="white" transform="translate(0.75)"/>
</clipPath>
</defs>
</svg>
