<svg fill="none" height="60" viewBox="0 0 61 60" width="61" xmlns="http://www.w3.org/2000/svg" xmlns:xlink="http://www.w3.org/1999/xlink"><clipPath id="a"><path d="m.5 0h60v60h-60z"/></clipPath><g clip-path="url(#a)"><path d="m35.6834 3.4832-5.1821 7.4859-5.182-7.4859c-4.7386 1.25821-8.8575 4.19748-11.5882 8.2693-2.7308 4.0719-3.88677 8.9982-3.2523 13.8598.6344 4.8615 3.016 9.3261 6.7002 12.5608 3.6843 3.2347 8.4196 5.0185 13.3223 5.0185 4.9028 0 9.6381-1.7838 13.3224-5.0185 3.6842-3.2347 6.0658-7.6993 6.7002-12.5608.6344-4.8616-.5216-9.7879-3.2523-13.8598-2.7307-4.07182-6.8497-7.01109-11.5882-8.2693z" fill="#2d3c6b"/><path d="m46.4206 23.0018c0 .2766-.0094.5485-.0188.8203-.1888 3.6503-1.6308 7.1237-4.0828 9.8344-.3656.4031-.75.7922-1.1578 1.1625-2.7132 2.451-6.1877 3.8928-9.8391 4.0828-.2718.0094-.5437.0188-.8203.0188-.2765 0-.5484-.0094-.8203-.0188-3.6514-.19-7.1259-1.6318-9.8391-4.0828-.4078-.3703-.7921-.7594-1.1578-1.1625-2.4519-2.7107-3.8939-6.1841-4.0828-9.8344-.0094-.2718-.0187-.5437-.0187-.8203 0-.2765.0093-.5484.0234-.8203.1837-3.6514 1.6264-7.1265 4.0828-9.8344.3633-.4094.7499-.7975 1.1578-1.1625 2.2706-2.051 5.0847-3.4035 8.1047-3.89528l1.7297 2.49375.8203 1.18593.8203-1.18593 1.7297-2.49375c3.589.5889 6.8689 2.38663 9.2961 5.09518 2.4272 2.7085 3.8559 6.1652 4.0492 9.797.0141.2719.0235.5438.0235.8203z" fill="#fcf9f0"/><path d="m16.5784 54.5548h27.8437c1.1574 0 2.2674.4598 3.0859 1.2782.8184.8184 1.2782 1.9284 1.2782 3.0858v.2602h-36.5705v-.2602c0-1.1571.4596-2.2669 1.2777-3.0853s1.9278-1.2783 3.085-1.2787z" fill="#2d3c6b"/><g fill="#efe1cb"><path d="m31.3178 9.78217v9.26723c0 .2175-.0864.4262-.2402.58-.1539.1538-.3625.2403-.5801.2403-.2175 0-.4262-.0865-.58-.2403-.1539-.1538-.2403-.3625-.2403-.58v-9.26723l.8203 1.18593z"/><path d="m31.318 26.9528v11.9485c-.2719.0093-.5438.0187-.8203.0187-.2766 0-.5485-.0094-.8204-.0187v-11.9485c0-.2175.0865-.4262.2403-.58.1538-.1539.3625-.2403.5801-.2403.2175 0 .4262.0864.58.2403.1538.1538.2403.3625.2403.58z"/><path d="m42.31 12.3461-8.4375 8.4375c-.0754.0789-.1658.1419-.2658.1853-.1001.0435-.2079.0665-.3169.0677-.1091.0013-.2174-.0193-.3184-.0605s-.1928-.1021-.27-.1793c-.0771-.0771-.138-.1689-.1792-.2699s-.0618-.2093-.0606-.3184c.0013-.1091.0243-.2168.0677-.3169.0435-.1.1065-.1904.1854-.2658l8.4422-8.4422c.4041.3674.789.7554 1.1531 1.1625z"/><path d="m28.2805 26.3764-8.4421 8.4422c-.4079-.3704-.7922-.7594-1.1579-1.1625l8.4422-8.4422c.0764-.0761.1669-.1363.2665-.1773.0996-.0411.2064-.0621.3141-.0618.1077.0002.2144.0216.3138.063.0994.0415.1898.1021.2658.1784s.1363.1669.1773.2665.062.2063.0618.3141c-.0002.1077-.0217.2143-.0631.3138-.0414.0994-.102.1897-.1784.2658z"/><path d="m46.4166 23.0013c0 .2765-.0094.5484-.0187.8203h-11.9485c-.2175 0-.4262-.0865-.58-.2403-.1539-.1538-.2403-.3625-.2403-.58 0-.2176.0864-.4263.2403-.5801.1538-.1538.3625-.2403.58-.2403h11.9438c.014.2719.0234.5438.0234.8204z"/><path d="m27.3672 23.0009c-.0003.2175-.0868.426-.2405.5798-.1538.1538-.3623.2403-.5798.2405h-11.9485c-.0093-.2719-.0187-.5437-.0187-.8203s.0094-.5484.0234-.8203h11.9438c.2175.0002.426.0867.5798.2405.1537.1538.2402.3623.2405.5798z"/><path d="m42.3144 33.6557c-.3656.4032-.75.7922-1.1578 1.1625l-8.4422-8.4422c-.0763-.076-.137-.1663-.1784-.2657-.0414-.0995-.0628-.2061-.0631-.3138-.0002-.1078.0208-.2145.0618-.3141.0411-.0996.1013-.1902.1773-.2665.0761-.0763.1664-.1369.2658-.1784.0995-.0414.2061-.0628.3138-.0631.1078-.0002.2145.0208.3141.0619.0996.041.1902.1012.2665.1772z"/><path d="m28.2818 20.7841c-.0754.0772-.1654.1384-.2648.1803-.0994.0418-.2062.0634-.3141.0634-.1078 0-.2146-.0216-.314-.0634-.0994-.0419-.1895-.1031-.2649-.1803l-8.4375-8.4375c.3633-.4094.7499-.7975 1.1578-1.1625l8.4375 8.4422c.0769.0756.1379.1657.1796.2651.0416.0994.0631.206.0631.3138s-.0215.2145-.0631.3139c-.0417.0994-.1027.1895-.1796.265z"/></g><path d="m30.5013 10.971-7.0261-10.151298h14.0521z" fill="#73c3f9"/><path d="m30.4993 43.1942c-3.7146.0054-7.3581-1.0188-10.5258-2.9588l-1.771 14.3194h24.5935l-1.771-14.3194c-3.1677 1.94-6.8111 2.9642-10.5257 2.9588z" fill="#ffc839"/><path d="m23.6373 48.3149h13.7311v6.2395h-13.7311z" fill="#d0021b"/><path d="m30.4996 26.9544c2.1832 0 3.953-1.7698 3.953-3.9529 0-2.1832-1.7698-3.953-3.953-3.953-2.1831 0-3.9529 1.7698-3.9529 3.953 0 2.1831 1.7698 3.9529 3.9529 3.9529z" fill="#73c3f9"/><path d="m24.0232 58.3593h-2.6808c-.2176 0-.4262.0864-.58.2403-.1539.1538-.2403.3624-.2403.58s.0864.4262.2403.5801c.1538.1538.3624.2402.58.2402h2.6808c.2175 0 .4262-.0864.58-.2402.1539-.1539.2403-.3625.2403-.5801s-.0864-.4262-.2403-.58c-.1538-.1539-.3625-.2403-.58-.2403z" fill="#000"/><path d="m44.6654 53.7344h-.9005l-1.6191-13.0964c3.337-2.1537 5.9949-5.2096 7.6651-8.813s2.2843-7.6065 1.7711-11.5449-2.1328-7.6504-4.6707-10.70546c-2.5379-3.055-5.8901-5.32768-9.6676-6.55427l1.2-1.73437c.0849-.12304.1347-.26698.1437-.416237.0091-.149259-.0228-.298155-.0923-.430573-.0695-.132419-.1738-.243316-.3018-.32069-.128-.0773744-.2746-.1182786-.4242-.11828584h-14.0512c-.1498-.00017064-.2967.04068374-.4249.11812884-.1282.077445-.2327.188521-.3022.321173-.0695.132651-.1014.281809-.0921.431284.0092.14947.0593.29355.1446.4166l1.2 1.73438c-3.7771 1.22678-7.129 3.49947-9.6666 6.55435-2.5377 3.05487-4.157 6.76667-4.67025 10.70477-.51322 3.9381.10075 7.941 1.77075 11.5442 1.6699 3.6032 4.3274 6.6591 7.664 8.8129l-1.6191 13.0964h-.9005c-1.3744.0015-2.6921.5482-3.6639 1.52-.9719.9718-1.5185 2.2895-1.52 3.6639v.2602c0 .2175.0864.4262.2403.58.1538.1539.3625.2403.58.2403h3.9432c.2175 0 .4262-.0864.58-.2403.1538-.1538.2403-.3625.2403-.58 0-.2176-.0865-.4262-.2403-.5801-.1538-.1538-.3625-.2402-.58-.2402h-3.0774c.1345-.8316.5603-1.5882 1.2013-2.1347.6411-.5465 1.4556-.8472 2.2979-.8484h27.8424c.8423.0012 1.6568.3019 2.2979.8484.641.5465 1.0668 1.3031 1.2013 2.1347h-18.7102c-.2175 0-.4262.0864-.58.2402-.1538.1539-.2403.3625-.2403.5801 0 .2175.0865.4262.2403.58.1538.1539.3625.2403.58.2403h19.5732c.2175 0 .4262-.0864.58-.2403.1538-.1538.2403-.3625.2403-.58v-.2602c-.0015-1.3741-.548-2.6916-1.5195-3.6634s-2.2889-1.5186-3.663-1.5205zm-9.2241-31.5534c-.1203-.6917-.3924-1.348-.7969-1.9219l7.3538-7.3523c2.2968 2.5634 3.645 5.8368 3.8198 9.2742zm-14.7722 12.0548 7.3332-7.3331c.5737.4046 1.2301.6768 1.9218.7969v10.3772c-3.4334-.1845-6.6999-1.5401-9.255-3.841zm-5.0011-10.4142h10.3777c.1203.6917.3924 1.3481.7969 1.9219l-7.3336 7.3322c-2.3005-2.555-3.6561-5.821-3.841-9.2541zm18.2082-.8203c0 .6196-.1838 1.2253-.528 1.7404-.3442.5152-.8335.9167-1.4059 1.1538s-1.2023.2991-1.8099.1783c-.6077-.1209-1.1659-.4193-1.604-.8574s-.7365-.9963-.8574-1.6039c-.1208-.6077-.0588-1.2376.1783-1.81s.6386-1.0617 1.1538-1.4059 1.1208-.528 1.7404-.528c.8305.001 1.6268.3314 2.214.9187.5873.5873.9177 1.3835.9187 2.214zm-3.953-11.775v7.0781c-.6917.1201-1.3482.3923-1.9219.7969l-7.3495-7.3519c2.0243-1.81275 4.5016-3.04378 7.169-3.56247zm-10.4344 1.6805 7.3533 7.3533c-.4044.5738-.6766 1.2302-.7969 1.9218h-10.3762c.1746-3.4377 1.5228-6.7115 3.8198-9.2751zm12.075 14.7923c.6917-.1201 1.3482-.3922 1.9219-.7969l7.3275 7.3289c-2.5578 2.2935-5.8195 3.649-9.2494 3.8438zm1.9219-8.5987c-.5737-.4047-1.2302-.6768-1.9219-.7969v-7.0781l2.1024-3.03706c2.6674.51869 5.1447 1.74972 7.169 3.56246zm2.7187-17.46097-3.5859 5.1825-1.875 2.70703-1.875-2.70703-3.5855-5.18109zm-24.8334 21.36187c.0016-4.1737 1.3503-8.2355 3.8454-11.5813 2.4951-3.34587 6.0035-5.79707 10.0034-6.98916l1.5937 2.3025c-2.8822.69438-5.528 2.14241-7.6665 4.19576-2.1384 2.0533-3.6927 4.6382-4.5035 7.4898-.8108 2.8517-.8491 5.8676-.1108 8.7389.7382 2.8712 2.2264 5.4947 4.3121 7.6016.0373.0556.085.1033.1406.1407 3.1247 3.0969 7.3452 4.8358 11.7446 4.8389 4.3995.0031 8.6224-1.7299 11.7515-4.8225.081-.0556.1503-.1267.2039-.2091.6059-.6132 1.1635-1.2724 1.6678-1.9716.0674-.0872.1165-.1871.1445-.2938.0279-.1066.034-.2178.018-.3269s-.0539-.2138-.1113-.308c-.0574-.0941-.1332-.1757-.2228-.2398-.0897-.0642-.1913-.1097-.2989-.1337s-.219-.026-.3274-.006c-.1084.0199-.2117.0616-.3037.1224-.0919.0608-.1707.1395-.2315.2315-.3241.4495-.6726.8809-1.0439 1.2923l-7.3313-7.3312c.4044-.5739.6766-1.2303.7969-1.9219h10.3762c-.0476.9043-.1769 1.8025-.3862 2.6836-.025.1048-.0291.2135-.0121.3199.017.1063.0548.2083.1112.3001.114.1854.297.3179.5086.3683.2117.0505.4347.0148.6201-.0991.0917-.0565.1715-.1304.2347-.2177.0632-.0872.1086-.1861.1336-.2909 1.0251-4.3099.3006-8.8505-2.0148-12.6274-2.3155-3.7769-6.0332-6.48245-10.3391-7.52416l1.5937-2.3025c3.4444 1.02448 6.5359 2.98673 8.929 5.66736 2.3931 2.6807 3.9935 5.9741 4.6223 9.5121.6288 3.5381.2611 7.1812-1.0618 10.5223s-3.5491 6.2484-6.4295 8.3969-6.3016 3.4536-9.8812 3.7693-7.1764-.3704-10.3884-1.9816-5.9127-4.0839-7.8-7.1419c-1.8873-3.0579-2.8869-6.5805-2.8871-10.174zm13.3256 30.7331v-4.5993h12.0938v4.5993zm13.7306 0v-5.4197c0-.2175-.0864-.4262-.2402-.58-.1539-.1538-.3625-.2403-.5801-.2403h-13.7287c-.2176 0-.4262.0865-.5801.2403-.1538.1538-.2402.3625-.2402.58v5.4197h-3.683l1.5066-12.1851c3.0352 1.6185 6.4222 2.4651 9.862 2.4651s6.8268-.8466 9.862-2.4651l1.5066 12.1851z" fill="#000"/></g></svg>