<svg width="98" height="98" viewBox="0 0 98 98" fill="none" xmlns="http://www.w3.org/2000/svg">
<g clip-path="url(#clip0_8384:153039)">
<path d="M41.2572 67.1228C39.7961 65.6057 37.9062 64.4853 35.7439 63.9671L27.9292 62.0945L27.9259 62.0996L27.9292 62.0945V57.3237H18.3861V62.1099L10.5917 63.9719C5.495 65.1894 1.89941 69.7448 1.89941 74.9849V87.7529H19.1769L41.2572 67.1228Z" fill="#FF5A5A"/>
<path d="M28.1341 57.3237V62.2233L23.1816 74.0861L18.2344 62.2402V57.3237H28.1341Z" fill="#FFB487"/>
<path d="M33.8011 40.8872V47.4953C33.8011 53.3698 29.0387 58.132 23.164 58.132C17.2893 58.132 12.5269 53.3698 12.5269 47.4953V40.8872H33.8011Z" fill="#FFCDAC"/>
<path d="M33.8011 42.9771V40.4165C33.8011 34.542 29.0387 29.7798 23.164 29.7798C17.2893 29.7798 12.5269 34.542 12.5269 40.4165V42.9771H19.8592C24.4508 42.9771 28.9564 41.7305 32.895 39.3705" fill="#878791"/>
<path d="M55.9928 67.1228C57.4538 65.6057 59.3437 64.4853 61.506 63.9671L69.3208 62.0945L69.324 62.0996L69.3208 62.0945V57.3237H78.8638V62.1099L86.6583 63.9719C91.755 65.1894 95.3506 69.7448 95.3506 74.9849V87.7529H78.0731L55.9928 67.1228Z" fill="#FF5A5A"/>
<path d="M41.9681 66.936L31.0834 69.5443C23.9894 71.2443 18.9869 77.587 18.9869 84.8815V95.3507H78.224V84.8906C78.224 77.5919 73.216 71.2468 66.1167 69.5508L55.2602 66.9573L41.9681 66.936Z" fill="#FF5A5A"/>
<path d="M79.0157 57.3237V62.2402L74.0685 74.0861L69.116 62.2233V57.3237H79.0157Z" fill="#FFB487"/>
<path d="M48.6269 82.1947L55.7136 66.1051C55.1877 65.2219 54.888 64.1939 54.888 63.1056V61.5591H42.3583V63.1058C42.3583 64.1922 42.0597 65.2187 41.5353 66.101L48.6269 82.1947Z" fill="#FFB487"/>
<path d="M63.4407 36.3784V46.6009C63.4407 54.7832 56.8075 61.4165 48.6252 61.4165C40.4429 61.4165 33.8098 54.7834 33.8098 46.6009V36.3784H63.4407Z" fill="#FFCDAC"/>
<path d="M48.6249 21.9263C40.4425 21.9263 33.8093 28.5594 33.8093 36.7417V40.3082H41.0531C45.8683 40.3082 50.4366 38.1761 53.5292 34.4854L63.4402 40.3082V36.7417C63.4406 28.5594 56.8074 21.9263 48.6249 21.9263Z" fill="#F5B955"/>
<path d="M63.449 40.8872V47.4953C63.449 53.3698 68.2114 58.132 74.0861 58.132C79.9608 58.132 84.7232 53.3698 84.7232 47.4953V40.8872H63.449Z" fill="#FFCDAC"/>
<path d="M63.449 42.9771V40.4165C63.449 34.542 68.2114 29.7798 74.0861 29.7798C79.9608 29.7798 84.7232 34.542 84.7232 40.4165V42.9771H77.3909C72.7992 42.9771 68.2936 41.7305 64.355 39.3705" fill="#878791"/>
<path d="M48.5756 93.4512C48.0758 93.4512 47.5858 93.6544 47.2327 94.0077C46.8794 94.361 46.6761 94.851 46.6761 95.3506C46.6761 95.8501 46.8792 96.3402 47.2327 96.6935C47.5858 97.0468 48.0758 97.25 48.5756 97.25C49.0751 97.25 49.5652 97.0468 49.9183 96.6935C50.2715 96.3402 50.475 95.8501 50.475 95.3506C50.475 94.851 50.2717 94.361 49.9183 94.0077C49.5652 93.6544 49.0751 93.4512 48.5756 93.4512Z" fill="black"/>
<path d="M87.0995 62.1243L80.7635 60.6107V58.0974C84.2804 55.8745 86.6228 51.9543 86.6228 47.4952V40.4167C86.6228 33.5041 80.999 27.8806 74.0863 27.8806C70.3573 27.8806 67.0054 29.519 64.707 32.1115C62.694 25.1401 56.2555 20.0269 48.6448 20.0269H48.6446C41.0215 20.0269 34.5743 25.1562 32.5725 32.1447C30.2734 29.533 26.9092 27.8806 23.1643 27.8806C16.2516 27.8806 10.6278 33.5043 10.6278 40.4167V47.4952C10.6278 51.9545 12.9701 55.8747 16.4871 58.0974V60.6107L10.151 62.1243C4.17415 63.5519 0 68.8405 0 74.9849V87.7529C0 88.802 0.850558 89.6523 1.89941 89.6523H17.0877V95.3506C17.0877 96.3996 17.9383 97.25 18.9871 97.25H39.8244C40.8733 97.25 41.7239 96.3996 41.7239 95.3506C41.7239 94.3015 40.8733 93.4512 39.8244 93.4512H31.3449V85.0915C31.3449 84.0424 30.4943 83.1921 29.4455 83.1921C28.3966 83.1921 27.5461 84.0424 27.5461 85.0915V93.4512H20.8863V84.8814C20.8863 78.4397 25.2614 72.8925 31.5259 71.3914L40.8678 69.1527L46.8787 82.8278C47.1818 83.5174 47.8639 83.9628 48.6172 83.9628H48.6174C49.3707 83.9628 50.053 83.5176 50.3561 82.8279L56.3609 69.1729L65.6757 71.398C71.9458 72.8957 76.3247 78.4441 76.3247 84.8903V87.0099C76.2277 87.2382 76.1737 87.4891 76.1737 87.7527C76.1737 88.0164 76.2277 88.2675 76.3247 88.4956V93.4512H69.7039V85.0915C69.7039 84.0424 68.8534 83.1921 67.8045 83.1921C66.7557 83.1921 65.9051 84.0424 65.9051 85.0915V93.4512H56.6027C55.5539 93.4512 54.7033 94.3015 54.7033 95.3506C54.7033 96.3996 55.5539 97.25 56.6027 97.25H78.2241C79.273 97.25 80.1236 96.3996 80.1236 95.3506V89.6523H95.3506C96.3994 89.6523 97.25 88.802 97.25 87.7529V74.9849C97.25 68.8405 93.0758 63.5519 87.0995 62.1243ZM76.9688 62.2125L74.0688 69.1565L71.2079 62.3038C71.2155 62.2349 71.221 62.1655 71.221 62.096C71.221 62.0784 71.2208 62.0605 71.2202 62.0428V59.6971C72.1415 59.9134 73.0999 60.0314 74.0861 60.0314C75.0766 60.0314 76.0396 59.9123 76.9644 59.694V62.1097C76.9644 62.1443 76.9669 62.1783 76.9688 62.2125ZM40.0687 63.7383C38.8763 62.9986 37.5679 62.451 36.1867 62.1202L29.8286 60.5966V58.1055C31.4099 57.1089 32.7529 55.7695 33.7541 54.1914C35.1861 56.9891 37.3839 59.3318 40.0687 60.9433V63.7383ZM35.728 46.6012V42.2078H41.0726C45.9206 42.2078 50.5155 40.2917 53.9101 36.9007L61.5498 41.3888V47.047C61.3135 53.9629 55.6173 59.5174 48.6446 59.5174C41.5221 59.5172 35.728 53.723 35.728 46.6012ZM57.1598 60.979C59.8612 59.373 62.0744 57.0286 63.5174 54.2249C64.5164 55.7883 65.8515 57.1158 67.4214 58.1055V60.5966L61.0633 62.1202C59.6737 62.4531 58.358 63.0057 57.1596 63.7521V60.979H57.1598ZM74.0861 56.2325C69.2682 56.2325 65.3484 52.3129 65.3484 47.4952V47.1852C65.355 46.9913 65.3598 42.0781 65.3598 42.0781C69.0938 43.9145 73.2104 44.8769 77.3911 44.8769H82.8239V47.4954C82.8238 52.3131 78.9039 56.2325 74.0861 56.2325ZM74.0861 31.6794C78.9039 31.6794 82.8238 35.599 82.8238 40.4167V40.887V41.0779H77.3909C73.287 41.0779 69.2543 40.0003 65.7004 37.9579C66.7652 34.3334 70.1214 31.6794 74.0861 31.6794ZM35.728 36.7419C35.728 29.6198 41.5223 23.8259 48.6446 23.8259C55.7666 23.8259 61.561 29.62 61.561 36.7419V36.9896L54.5113 32.8479C53.7114 32.3778 52.6892 32.5546 52.0933 33.2656C49.3544 36.5341 45.3375 38.4088 41.0727 38.4088H35.728V36.7419ZM14.4262 40.4167C14.4262 35.5988 18.3461 31.6794 23.1639 31.6794C27.1286 31.6794 30.4848 34.3334 31.5495 37.9581C27.9955 40.0003 23.963 41.0781 19.8589 41.0781H14.4262V40.8872V40.4167ZM14.4262 44.8767H19.8591C24.0439 44.8767 28.1647 43.9126 31.9016 42.0726V47.4952C31.9016 52.3131 27.9818 56.2325 23.1639 56.2325C18.3461 56.2325 14.4262 52.3129 14.4262 47.4952V44.8767ZM23.1639 60.0314C24.1501 60.0314 25.1085 59.9132 26.0298 59.6971V61.9897C26.0277 62.0254 26.0267 62.0611 26.0267 62.0968C26.0267 62.1566 26.0324 62.2161 26.0381 62.2755L23.1643 69.1565L20.2797 62.2467C20.2829 62.2013 20.2856 62.1559 20.2856 62.1099V59.6942C21.2104 59.9123 22.1734 60.0314 23.1639 60.0314ZM17.0877 84.8814V85.8535H11.3965V77.4146C11.3965 76.3656 10.5459 75.5152 9.49707 75.5152C8.44821 75.5152 7.59766 76.3656 7.59766 77.4146V85.8535H3.79883V74.9849C3.79883 70.6058 6.77369 66.8368 11.0331 65.8193L17.0539 64.3808L20.9834 73.7934C18.5257 76.8465 17.0877 80.7164 17.0877 84.8814ZM30.6408 67.6972C29.5192 67.966 28.4473 68.34 27.4296 68.8012L29.2797 64.3713L35.3014 65.8143C35.7684 65.9262 36.2235 66.0742 36.664 66.2538L30.6408 67.6972ZM48.6178 77.344L43.8675 66.5369V62.6195C45.3818 63.0719 46.985 63.316 48.6444 63.316C50.2817 63.316 51.8645 63.0782 53.3608 62.6374V66.5579L48.6178 77.344ZM60.5512 66.2683C61.0025 66.0821 61.4692 65.9292 61.9486 65.8143L67.9557 64.3749L69.8133 68.8245C68.7825 68.355 67.6959 67.9753 66.5581 67.7035L60.5512 66.2683ZM93.4512 85.8535H89.6523V77.4146C89.6523 76.3656 88.8018 75.5152 87.7529 75.5152C86.7041 75.5152 85.8535 76.3656 85.8535 77.4146V85.8535H80.1236V84.8905C80.1236 80.731 78.6903 76.8664 76.2396 73.816L80.1815 64.3774L86.2169 65.8193C90.4763 66.8368 93.4512 70.6058 93.4512 74.9849V85.8535Z" fill="black"/>
<path d="M42.2544 43.9238C41.7548 43.9238 41.2648 44.1271 40.9115 44.4804C40.5582 44.8336 40.355 45.3237 40.355 45.8232C40.355 46.3228 40.558 46.8128 40.9115 47.1661C41.265 47.5194 41.7548 47.7227 42.2544 47.7227C42.7558 47.7227 43.244 47.5194 43.5971 47.1661C43.9523 46.8128 44.1538 46.3228 44.1538 45.8232C44.1538 45.3237 43.9523 44.8336 43.5971 44.4804C43.244 44.1271 42.7539 43.9238 42.2544 43.9238Z" fill="black"/>
<path d="M54.9558 47.7227C55.4554 47.7227 55.9454 47.5194 56.2985 47.1661C56.6537 46.8128 56.8552 46.3228 56.8552 45.8232C56.8552 45.3237 56.6537 44.8336 56.2985 44.4804C55.9454 44.1271 55.4554 43.9238 54.9558 43.9238C54.4563 43.9238 53.9662 44.1271 53.6129 44.4804C53.2596 44.8336 53.0564 45.3237 53.0564 45.8232C53.0564 46.3228 53.2594 46.8128 53.6129 47.1661C53.9664 47.5194 54.4563 47.7227 54.9558 47.7227Z" fill="black"/>
<path d="M52.2808 50.8742C51.5389 50.1324 50.3366 50.1324 49.5945 50.8742C49.0328 51.4358 48.119 51.4358 47.5573 50.8742C46.8154 50.1324 45.6131 50.1324 44.871 50.8742C44.1293 51.6159 44.1293 52.8186 44.871 53.5605C45.8925 54.5818 47.2341 55.0926 48.5758 55.0926C49.9175 55.0926 51.2591 54.582 52.2806 53.5605C53.0225 52.8186 53.0225 51.6159 52.2808 50.8742Z" fill="black"/>
<path d="M77.234 14.0557H78.5368C79.5857 14.0557 80.4362 13.2053 80.4362 12.1562C80.4362 11.1072 79.5857 10.2568 78.5368 10.2568H77.234C76.1852 10.2568 75.3346 11.1072 75.3346 12.1562C75.3346 13.2053 76.1852 14.0557 77.234 14.0557Z" fill="black"/>
<path d="M86.4501 14.0557H87.7529C88.8017 14.0557 89.6523 13.2053 89.6523 12.1562C89.6523 11.1072 88.8017 10.2568 87.7529 10.2568H86.4501C85.4012 10.2568 84.5507 11.1072 84.5507 12.1562C84.5507 13.2053 85.401 14.0557 86.4501 14.0557Z" fill="black"/>
<path d="M82.4937 19.315C83.5425 19.315 84.3931 18.4646 84.3931 17.4156V16.1128C84.3931 15.0637 83.5425 14.2134 82.4937 14.2134C81.4448 14.2134 80.5942 15.0637 80.5942 16.1128V17.4156C80.5942 18.4646 81.4446 19.315 82.4937 19.315Z" fill="black"/>
<path d="M82.4937 10.0992C83.5425 10.0992 84.3931 9.24883 84.3931 8.19978V6.89697C84.3931 5.84793 83.5425 4.99756 82.4937 4.99756C81.4448 4.99756 80.5942 5.84793 80.5942 6.89697V8.19978C80.5942 9.24883 81.4446 10.0992 82.4937 10.0992Z" fill="black"/>
<path d="M9.39148 14.0557H10.6941C11.743 14.0557 12.5935 13.2053 12.5935 12.1562C12.5935 11.1072 11.743 10.2568 10.6941 10.2568H9.39148C8.34262 10.2568 7.49207 11.1072 7.49207 12.1562C7.49207 13.2053 8.34262 14.0557 9.39148 14.0557Z" fill="black"/>
<path d="M18.6077 14.0557H19.9103C20.9591 14.0557 21.8097 13.2053 21.8097 12.1562C21.8097 11.1072 20.9591 10.2568 19.9103 10.2568H18.6077C17.5588 10.2568 16.7083 11.1072 16.7083 12.1562C16.7083 13.2053 17.5586 14.0557 18.6077 14.0557Z" fill="black"/>
<path d="M14.651 19.315C15.6999 19.315 16.5504 18.4646 16.5504 17.4156V16.1128C16.5504 15.0637 15.6999 14.2134 14.651 14.2134C13.6021 14.2134 12.7516 15.0637 12.7516 16.1128V17.4156C12.7516 18.4646 13.602 19.315 14.651 19.315Z" fill="black"/>
<path d="M14.651 10.0992C15.6999 10.0992 16.5504 9.24883 16.5504 8.19978V6.89697C16.5504 5.84793 15.6999 4.99756 14.651 4.99756C13.6021 4.99756 12.7516 5.84793 12.7516 6.89697V8.19978C12.7516 9.24883 13.602 10.0992 14.651 10.0992Z" fill="black"/>
<path d="M48.625 16.0306C49.6739 16.0306 50.5244 15.1802 50.5244 14.1311V9.13379C50.5244 8.08474 49.6739 7.23438 48.625 7.23438C47.5761 7.23438 46.7256 8.08474 46.7256 9.13379V14.1311C46.7256 15.1802 47.5761 16.0306 48.625 16.0306Z" fill="black"/>
<path d="M48.625 3.79883C49.1245 3.79883 49.6146 3.59559 49.9677 3.2423C50.3212 2.88901 50.5244 2.39896 50.5244 1.89941C50.5244 1.39987 50.3212 0.909819 49.9677 0.556528C49.6146 0.203237 49.1245 0 48.625 0C48.1255 0 47.6354 0.203237 47.2821 0.556528C46.9286 0.909819 46.7256 1.39987 46.7256 1.89941C46.7256 2.39896 46.9286 2.88901 47.2821 3.2423C47.6356 3.59559 48.1255 3.79883 48.625 3.79883Z" fill="black"/>
<path d="M39.2824 10.3064C39.6533 10.6774 40.1394 10.8628 40.6254 10.8628C41.1115 10.8628 41.5976 10.6774 41.9685 10.3064C42.7102 9.56469 42.7102 8.36198 41.9685 7.62007L39.1889 4.84047C38.447 4.09875 37.2447 4.09875 36.5026 4.84047C35.7609 5.58219 35.7609 6.7849 36.5026 7.52681L39.2824 10.3064Z" fill="black"/>
<path d="M56.5315 10.8511C57.0178 10.8511 57.5036 10.6658 57.8746 10.2948L60.7471 7.42232C61.4888 6.6806 61.4888 5.47789 60.7471 4.73598C60.0052 3.99426 58.8028 3.99426 58.0607 4.73598L55.1882 7.60846C54.4465 8.35018 54.4465 9.55289 55.1882 10.2948C55.5594 10.6658 56.0453 10.8511 56.5315 10.8511Z" fill="black"/>
</g>
<defs>
<clipPath id="clip0_8384:153039">
<rect width="97.25" height="97.25" fill="white"/>
</clipPath>
</defs>
</svg>
