<svg fill="none" height="68" viewBox="0 0 68 68" width="68" xmlns="http://www.w3.org/2000/svg" xmlns:xlink="http://www.w3.org/1999/xlink"><clipPath id="a"><path d="m0 0h68v68h-68z" transform="matrix(-1 0 0 1 68 0)"/></clipPath><g clip-path="url(#a)"><path d="m1.13336 39.6665v26.0667c.0018.6251.50816 1.1315 1.13333 1.1333h63.46671c.6251-.0018 1.1315-.5082 1.1333-1.1333v-26.0667z" fill="#4527a0"/><path d="m4.53337 39.6665v26.0667c.0018.6251.50816 1.1315 1.13333 1.1333h60.0667c.6251-.0018 1.1315-.5082 1.1333-1.1333v-26.0667z" fill="#673ab7"/><path d="m1.13336 39.6666h65.73334l-8.7607-18.6207c-.1858-.395-.5834-.6468-1.02-.646h-46.172c-.4365-.0008-.8341.251-1.01997.646z" fill="#6a1b9a"/><path d="m4.53337 39.6666h62.33333l-8.7607-18.6207c-.1858-.395-.5834-.6468-1.02-.646h-42.772c-.4365-.0008-.8341.251-1.02.646z" fill="#9d27b0"/><path d="m19.2667 2.26663v29.46667h29.4666v-29.46667c-.0018-.62517-.5081-1.13152-1.1333-1.13333h-27.2c-.6252.00181-1.1315.50816-1.1333 1.13333z" fill="#fec108"/><path d="m22.6667 2.26663v29.46667h26.0666v-29.46667c-.0018-.62517-.5081-1.13152-1.1333-1.13333h-23.8c-.6252.00181-1.1315.50816-1.1333 1.13333z" fill="#ffdc00"/><path d="m17 46.4666h34c.626 0 1.1334.5074 1.1334 1.1333v11.3333c0 .6259-.5074 1.1333-1.1334 1.1333h-34c-.6259 0-1.1333-.5074-1.1333-1.1333v-11.3333c0-.6259.5074-1.1333 1.1333-1.1333z" fill="#60a917"/><g fill="#000"><path d="m2.26673 68.0001h63.46667c1.2511-.0017 2.265-1.0155 2.2667-2.2667v-26.0666c0-.6259-.5074-1.1334-1.1334-1.1334h-65.73331c-.625918 0-1.13332849.5075-1.13332849 1.1334v26.0666c.00168561 1.2512 1.01551849 2.265 2.26666849 2.2667zm63.46667-27.2v24.9333h-63.46667v-24.9333z"/><path d="m1.13333 40.7999h65.73337c.3881.0002.7493-.1982.9573-.5258s.2339-.7389.0687-1.0901l-8.7607-18.6159c-.3762-.7926-1.1741-1.2988-2.0514-1.3015h-8.3473c-.6259 0-1.1333.5074-1.1333 1.1333 0 .626.5074 1.1334 1.1333 1.1334h8.3473l7.9997 17h-62.16061l7.99971-17h8.3473c.6259 0 1.1333-.5074 1.1333-1.1334 0-.6259-.5074-1.1333-1.1333-1.1333h-8.3473c-.8775.0021-1.67562.5085-2.05129 1.3015l-8.76067 18.6159c-.1652402.3511-.139334.7624.068663 1.09.207996.3277.569162.5261.957227.5259z"/><path d="m19.2667 32.8667h29.4667c.6259 0 1.1333-.5074 1.1333-1.1334v-29.46663c-.0017-1.25115-1.0155-2.26498436-2.2667-2.26667h-27.2c-1.2511.00168564-2.265 1.01552-2.2666 2.26667v29.46663c0 .626.5074 1.1334 1.1333 1.1334zm28.3333-2.2667h-27.2v-28.33333h27.2z"/><path d="m14.7334 32.8668h38.5333c.6259 0 1.1333-.5074 1.1333-1.1334 0-.6259-.5074-1.1333-1.1333-1.1333h-38.5333c-.626 0-1.1334.5074-1.1334 1.1333 0 .626.5074 1.1334 1.1334 1.1334z"/><path d="m17.0001 61.2002h34c1.2511-.0017 2.2649-1.0156 2.2666-2.2667v-11.3333c-.0017-1.2512-1.0155-2.265-2.2666-2.2667h-34c-1.2512.0017-2.265 1.0155-2.2667 2.2667v11.3333c.0017 1.2511 1.0155 2.265 2.2667 2.2667zm34-13.6v11.3333h-34.0023l.0023-11.3333z"/><path d="m22.6667 54.4002h22.6666c.626 0 1.1334-.5074 1.1334-1.1333s-.5074-1.1334-1.1334-1.1334h-22.6666c-.6259 0-1.1334.5075-1.1334 1.1334s.5075 1.1333 1.1334 1.1333z"/><path d="m29.4667 7.93342h13.6c.6259 0 1.1333-.50741 1.1333-1.13334 0-.62592-.5074-1.13333-1.1333-1.13333h-13.6c-.6259 0-1.1334.50741-1.1334 1.13333 0 .62593.5075 1.13334 1.1334 1.13334z"/><path d="m36.2667 13.5999h6.8c.6259 0 1.1333-.5074 1.1333-1.1333s-.5074-1.1333-1.1333-1.1333h-6.8c-.626 0-1.1334.5074-1.1334 1.1333s.5074 1.1333 1.1334 1.1333z"/><path d="m24.9334 13.5999h6.8c.6259 0 1.1333-.5074 1.1333-1.1333s-.5074-1.1333-1.1333-1.1333h-6.8c-.626 0-1.1334.5074-1.1334 1.1333s.5074 1.1333 1.1334 1.1333z"/><path d="m24.9333 18.1334h18.1334c.6259 0 1.1333-.5074 1.1333-1.1334 0-.6259-.5074-1.1333-1.1333-1.1333h-18.1334c-.6259 0-1.1333.5074-1.1333 1.1333 0 .626.5074 1.1334 1.1333 1.1334z"/><path d="m32.8667 22.6668h10.2c.6259 0 1.1333-.5074 1.1333-1.1333s-.5074-1.1334-1.1333-1.1334h-10.2c-.6259 0-1.1334.5075-1.1334 1.1334s.5075 1.1333 1.1334 1.1333z"/><path d="m24.9333 22.6668h3.4c.626 0 1.1334-.5074 1.1334-1.1333s-.5074-1.1334-1.1334-1.1334h-3.4c-.6259 0-1.1333.5075-1.1333 1.1334s.5074 1.1333 1.1333 1.1333z"/><path d="m24.9333 27.2h18.1334c.6259 0 1.1333-.5074 1.1333-1.1333s-.5074-1.1334-1.1333-1.1334h-18.1334c-.6259 0-1.1333.5075-1.1333 1.1334s.5074 1.1333 1.1333 1.1333z"/></g></g></svg>