<svg fill="none" height="146" viewBox="0 0 147 146" width="147" xmlns="http://www.w3.org/2000/svg" xmlns:xlink="http://www.w3.org/1999/xlink"><clipPath id="a"><path d="m.928467.142822h145.714v145.714h-145.714z"/></clipPath><g clip-path="url(#a)"><path d="m50.2094 91.8586c-10.4152 0-18.8583 8.4434-18.8583 18.8584v28.29c0 2.605 2.1108 4.715 4.7149 4.715h37.7192l4.7161-1.921 4.7135 1.921h37.7192c2.604 0 4.715-2.11 4.715-4.715v-28.29c0-10.415-8.443-18.8584-18.858-18.8584h-4.717l-23.5741 7.0723-23.5747-7.0723z" fill="#f25a3c"/><path d="m106.791 91.8586h-4.716-1.826c10.414.002 18.854 8.4444 18.854 18.8584v28.29c0 2.604-2.11 4.715-4.714 4.715h6.545c2.604 0 4.715-2.111 4.715-4.715v-28.29c0-10.415-8.443-18.8584-18.858-18.8584z" fill="#e63a3a"/><path d="m73.7854 103.167h9.4296v40.555h-9.4296z" fill="#cfd7e6"/><path d="m102.074 91.8606c0 9.1114-5.1691 17.0154-12.7346 20.9394-.8281.43-1.8308.34-2.5622-.239l-8.2773-6.556-8.2772 6.556c-.7314.579-1.7341.669-2.5622.24-7.5658-3.925-12.735-11.829-12.735-20.9404z" fill="#f3f5f9"/><path d="m95.5282 91.8589c0 8.0937-4.0808 15.2321-10.295 19.4771l1.5439 1.223c.7314.579 1.7341.669 2.5622.24 7.5655-3.925 12.7347-11.829 12.7347-20.9404h-6.5458z" fill="#cfd7e6"/><path d="m52.5701 31.8039v-15.3823c0-7.8119 6.3326-14.1445 14.1445-14.1445h23.5744c7.8119 0 14.145 6.33288 14.145 14.1445v15.3823z" fill="#f25a3c"/><path d="m64.3569 31.8039v-15.3823c0-7.8119 6.3326-14.1445 14.1446-14.1445 7.8119 0 14.1445 6.33288 14.1445 14.1445v15.3823z" fill="#e9efff"/><path d="m90.2884 2.2771h-6.56c7.8119 0 14.1445 6.33288 14.1445 14.1445v15.3823h6.5601v-15.3823c0-7.81162-6.333-14.1445-14.1446-14.1445z" fill="#e63a3a"/><path d="m78.5009 2.2771c-1.1339 0-2.2352.13718-3.2917.38905 6.2236 1.48418 10.8529 7.07738 10.8529 13.75545v15.3823h6.5836v-15.3823c0-7.81162-6.3329-14.1445-14.1448-14.1445z" fill="#d3dcfb"/><path d="m92.645 77.7163v14.1426c0 7.8119-6.3326 14.1441-14.1445 14.1441-7.8117 0-14.1445-6.3322-14.1445-14.1441v-14.1445z" fill="#fb9"/><path d="m50.212 58.8544c-2.6041 0-4.7149-2.1109-4.7149-4.715v-9.4298c0-2.6038 2.1108-4.715 4.7149-4.715h56.578c2.604 0 4.715 2.1109 4.715 4.715v9.4298c0 2.6041-2.111 4.715-4.715 4.715z" fill="#fb9"/><path d="m106.79 39.9958h-4.715-1.83c2.604 0 4.714 2.1109 4.714 4.715v9.4296c0 2.6041-2.11 4.7149-4.714 4.7149h1.83 4.715c2.604 0 4.715-2.1108 4.715-4.7149v-9.4296c0-2.6041-2.111-4.715-4.715-4.715z" fill="#ffa27d"/><path d="m54.9265 34.7685.0003 24.0869c0 13.0195 10.5543 23.5742 23.5741 23.5742 13.0195 0 23.5741-10.5544 23.5741-23.5742v-24.0869l-23.5741-2.3574z" fill="#ffd9b3"/><path d="m111.105 40.4717c-1.43 1.7238-3.882 2.1686-5.841 1.082-4.453-2.4703-13.4662-6.2723-26.7626-6.2723-13.2965 0-22.3102 3.802-26.7625 6.2723-1.9589 1.0866-4.411.6418-5.8414-1.082l-.0245-.0296c-1.9147-2.2737-1.2701-5.7219 1.3283-7.1657 5.6006-3.1112 16.1057-7.4248 31.3004-7.4248s25.6993 4.3136 31.3003 7.4248c2.598 1.4435 3.243 4.892 1.328 7.1657z" fill="#ff7f40"/><path d="m109.802 33.2764c-5.601-3.1112-16.1061-7.4248-31.3008-7.4248-1.1174 0-2.2063.0259-3.2729.0703 13.4373.56 22.8387 4.4718 28.0277 7.3543 2.598 1.4434 3.243 4.8919 1.328 7.1656l-.024.0296c-.141.1693-.294.3224-.453.467.414.2115.801.4178 1.157.615 1.959 1.0866 4.411.6418 5.841-1.082l.025-.0296c1.915-2.2737 1.27-5.7219-1.328-7.1654z" fill="#f25a3c"/><path d="m120.933 75.1814h9.43v14.8885h-9.43z" fill="#736b6b"/><path d="m132.801 77.7148h-14.306c-1.257 0-2.276-1.0195-2.276-2.2768v-4.8761c0-1.2573 1.019-2.2767 2.276-2.2767h14.306c1.258 0 2.277 1.0194 2.277 2.2767v4.8761c0 1.2576-1.019 2.2768-2.277 2.2768z" fill="#ffdf40"/><path d="m132.801 68.2852h-6.546c1.257 0 2.277 1.0194 2.277 2.2767v4.8761c0 1.2573-1.02 2.2768-2.277 2.2768h6.546c1.257 0 2.277-1.0195 2.277-2.2768v-4.8761c0-1.2573-1.02-2.2767-2.277-2.2767z" fill="#ffbe40"/><path d="m138.957 119.34c7.364-7.364 7.364-19.304 0-26.6678-7.363-7.364-19.303-7.364-26.667 0-7.364 7.3638-7.364 19.3038 0 26.6678 7.364 7.363 19.304 7.363 26.667 0z" fill="#f3f5f9"/><path d="m125.648 87.145c-1.117 0-2.209.1028-3.273.2889 8.855 1.5502 15.587 9.2716 15.587 18.5701 0 9.299-6.732 17.021-15.587 18.571 1.064.186 2.156.289 3.273.289 10.416 0 18.86-8.444 18.86-18.86 0-10.4152-8.444-18.859-18.86-18.859z" fill="#cfd7e6"/><path d="m40.9247 93.2335 5.6974-6.9636c.767-.9374.6987-2.3032-.1577-3.1598l-3.4923-3.4923c-.9207-.9207-2.4134-.9207-3.3338 0l-14.864 14.8639c-3.6332 3.6332-3.8557 9.5533-.3236 13.2843 3.6648 3.872 9.7757 3.935 13.5204.19 2.7137-2.713 3.4275-6.67 2.1416-10.0369-.6042-1.5832-.2612-3.3739.812-4.6856z" fill="#ffdf40"/><path d="m46.4643 83.111-3.4923-3.4923c-.9207-.9206-2.4134-.9206-3.3338 0l-1.606 1.606 1.8863 1.8863c.8564.8564.9247 2.2225.1577 3.1599l-5.6974 6.9636c-1.0729 1.3114-1.4162 3.1021-.8117 4.6853 1.2858 3.3672.5721 7.3232-2.1416 10.0372-.9955.996-2.1592 1.719-3.3986 2.177 3.3471 1.237 7.2555.512 9.9444-2.177 2.7136-2.714 3.4274-6.67 2.1416-10.0372-.6045-1.5832-.2613-3.3739.8117-4.6853l5.6973-6.9636c.767-.9374.699-2.3035-.1576-3.1599z" fill="#ffbe40"/><g fill="#000"><path d="m69.0717 53.9171c1.1788 0 2.1345-.9557 2.1345-2.1345v-2.3573c0-1.1788-.9557-2.1345-2.1345-2.1345s-2.1344.9557-2.1344 2.1345v2.3573c0 1.1788.9554 2.1345 2.1344 2.1345z"/><path d="m87.9316 53.9171c1.1791 0 2.1345-.9557 2.1345-2.1345v-2.3573c0-1.1788-.9554-2.1345-2.1345-2.1345s-2.1345.9557-2.1345 2.1345v2.3573c0 1.1788.9554 2.1345 2.1345 2.1345z"/><path d="m81.8148 16.4211c0-1.1788-.9554-2.1345-2.1345-2.1345h-2.3573c-1.1791 0-2.1345.9557-2.1345 2.1345s.9554 2.1345 2.1345 2.1345h2.3573c1.1791 0 2.1345-.9557 2.1345-2.1345z"/><path d="m78.5017 65.7052c2.4336 0 4.7053-1.3109 5.9288-3.4215.5911-1.02.2433-2.326-.7764-2.9171-1.02-.5914-2.326-.2436-2.9171.7764-.4622.7977-1.3189 1.2932-2.235 1.2932-.9164 0-1.773-.4955-2.2352-1.2932-.5914-1.02-1.8969-1.3675-2.9174-.7764-1.0198.5911-1.3675 1.8971-.7764 2.9171 1.2235 2.1103 3.4951 3.4215 5.9287 3.4215z"/><path d="m146.642 106.004c0-9.178-5.922-16.9939-14.144-19.8408v-6.3141h.304c2.432 0 4.411-1.9788 4.411-4.4112v-4.8763c0-2.4325-1.979-4.4113-4.411-4.4113h-14.306c-2.433 0-4.412 1.9788-4.412 4.4113v4.8763c0 2.4324 1.979 4.4112 4.412 4.4112h.303v6.3141c-2.635.9122-5.033 2.3332-7.076 4.1483-1.609-.3876-3.262-.5868-4.933-.5868h-4.709c-.003 0-.005-.0003-.007-.0003s-.004.0003-.007.0003h-7.2872v-10.9858c5.2362-4.2949 8.7512-10.6135 9.3402-17.7492h2.67c3.777 0 6.849-3.0725 6.849-6.8495v-9.4298c0-1.0878-.254-2.1357-.73-3.0794 1.213-1.5451 1.706-3.5207 1.35-5.4608-.373-2.0241-1.62-3.759-3.422-4.76-1.249-.6941-2.674-1.4141-4.27-2.1233v-12.865c0-4.3484-1.693-8.43636-4.768-11.51116-3.0741-3.0748-7.1621-4.768162-11.5102-4.768162h-23.5747c-8.9762 0-16.279 7.302792-16.279 16.279022v12.865c-1.596.7092-3.0213 1.4295-4.2707 2.1236-1.8018 1.001-3.0486 2.7359-3.4208 4.76-.3578 1.9443.1377 3.9243 1.349 5.4614-.4759.9434-.7295 1.9913-.7295 3.0791v9.4298c0 3.7769 3.0726 6.8495 6.8492 6.8495h2.6698c.5891 7.1354 4.1039 13.4538 9.3399 17.7486v10.9861h-7.2897c-.0022 0-.0042-.0003-.0065-.0003s-.0043.0003-.0066.0003h-4.7101c-1.3396 0-2.6658.1295-3.9647.3782l2.0295-2.4805c1.4676-1.7936 1.3384-4.382-.3003-6.0207l-3.4923-3.4923c-1.7511-1.7514-4.6011-1.7517-6.3525 0l-14.8634 14.8634c-4.4637 4.4637-4.627 11.7582-.3643 16.2612 1.7175 1.814 3.9126 2.994 6.3158 3.429v26.344c0 3.777 3.0725 6.85 6.8491 6.85h11.2795c1.1788 0 2.1345-.956 2.1345-2.135 0-1.178-.9557-2.134-2.1345-2.134h-11.2795c-1.4227 0-2.5801-1.158-2.5801-2.581v-26.359c2.2563-.428 4.331-1.518 5.995-3.182 3.2208-3.221 4.2516-8.052 2.6266-12.3082-.1201-.3147-.1699-.65-.1534-.9852 2.5084-1.4267 5.3436-2.1792 8.2556-2.1792h2.673c.722 8.7846 5.8672 16.5876 13.7956 20.6996.6551.34 1.3689.507 2.079.507.9952 0 1.983-.328 2.7913-.968l.1025-.081v27.437h-15.7674c-1.1788 0-2.1344.956-2.1344 2.134 0 1.179.9556 2.135 2.1344 2.135h65.0503c3.777 0 6.85-3.073 6.85-6.85v-12.117c10.577-1.074 18.858-10.031 18.858-20.886zm-110.1798.443c-1.4045 1.405-3.2689 2.162-5.2591 2.136-1.9859-.027-3.8332-.838-5.2016-2.284-2.688-2.839-2.5614-7.4635.2826-10.3075l14.8637-14.8639c.0436-.0436.1008-.0652.1577-.0652.0572 0 .1141.0216.1577.0652l3.4923 3.4923c.0814.0814.0876.2097.0148.2988l-5.6974 6.9635c-.5553.6785-.9662 1.4418-1.2326 2.2438-.0071.0208-.0148.0413-.0211.0621-.4696 1.4594-.4528 3.0449.1002 4.4926 1.0254 2.6863.3751 5.7343-1.6572 7.7663zm81.8918-31.0091v-4.8763c0-.0786.064-.1423.142-.1423h14.306c.078 0 .142.0637.142.1423v4.8763c0 .0785-.064.1423-.142.1423h-2.438-9.43-2.438c-.078 0-.142-.0638-.142-.1423zm4.715 4.4112h5.16v5.3252c-.846-.1042-1.706-.1643-2.58-.1643s-1.734.0601-2.58.1643zm-39.4725 27.4679c5.8348-1.929 10.2162-7.072 11.0396-13.3233h5.1976c-.7095 7.1813-4.97 13.5353-11.4764 16.9103-.0849.043-.1842.037-.2545-.019zm25.7745-53.1768c0 1.423-1.158 2.5805-2.58 2.5805h-2.581v-13.3109c.006.0034.013.0068.019.0099 1.589.8811 3.4 1.0644 5.053.6256.057.2145.089.4371.089.6651zm-19.0822-49.72865c3.2077 0 6.2239 1.24939 8.4924 3.51763 2.2688 2.26822 3.5178 5.28442 3.5178 8.49242v11.1676c-2.256-.798-4.7598-1.5359-7.5187-2.1487v-9.0189c0-4.7505-2.0462-9.03144-5.3023-12.01005zm-23.7975 20.22125v-8.2112c0-6.62232 5.3877-12.01005 12.01-12.01005 6.6226 0 12.0101 5.38773 12.0101 12.01005v8.2112c-3.6335-.572-7.6346-.9161-12.0101-.9161-4.3754 0-8.3765.3441-12.01.9161zm-11.7872-8.2112c0-6.62232 5.3877-12.01005 12.01-12.01005h.8106c-3.2564 2.97861-5.3024 7.25955-5.3024 12.01005l.0003 9.0186c-2.7586.6128-5.2628 1.3507-7.5182 2.1487zm-7.7619 20.5207c.1406-.765.6128-1.4213 1.2955-1.8004 5.8767-3.2646 15.8977-7.1562 30.2636-7.1562 14.3666 0 24.3877 3.8916 30.2637 7.1562.683.3794 1.155 1.0356 1.296 1.8004.139.759-.066 1.5334-.576 2.1396l-.022.0262c-.768.926-2.099 1.1691-3.163.5785-4.403-2.4427-13.8684-6.5403-27.7984-6.5403-13.9294 0-23.3954 4.0976-27.7978 6.5401-1.065.5905-2.3952.3475-3.1642-.5798l-.0336-.0404c-.498-.5905-.7035-1.3646-.5638-2.1239zm.6899 17.1982v-9.4298c0-.2277.0319-.45.0888-.664.5698.1511 1.158.2297 1.7497.2297 1.1256 0 2.2628-.2789 3.3039-.8564.006-.0034.0125-.0068.0185-.01l.0003 13.3113h-2.5807c-1.423-.0003-2.5805-1.1581-2.5805-2.5808zm9.4299 4.7155-.0003-17.4797c4.771-1.9552 11.9705-3.961 21.4396-3.961 9.4695 0 16.6689 2.0055 21.4397 3.961v17.4797c0 11.822-9.6177 21.4397-21.4394 21.4397-11.8219 0-21.4396-9.6177-21.4396-21.4397zm21.4396 25.7086c4.3356 0 8.423-1.0803 12.0098-2.9837v10.2012c-.0009.0259-.004.0509-.004.0771 0 .0173.0023.0339.0025.0512-.0281 6.5987-5.4036 11.9586-12.0088 11.9586-6.6155 0-11.9981-5.3767-12.0092-11.9896 0-.0068.0011-.0134.0011-.0199 0-.012-.0017-.0237-.0017-.0359v-10.2427c3.5868 1.9031 7.6745 2.9837 12.0103 2.9837zm-9.6035 26.3204c-.0697.056-.1699.063-.2541.019-6.5065-3.375-10.7672-9.729-11.4767-16.9106h5.1999c.823 6.2516 5.2039 11.3936 11.0381 13.3226zm7.0219-.115 2.5802-2.044 2.5807 2.044v30.818h-5.1609zm49.729 11.958c-3.69 0-7.187-1.176-10.114-3.403-.939-.714-2.278-.531-2.991.407-.714.938-.532 2.277.407 2.991 3.106 2.363 6.724 3.78 10.564 4.164v12.121c0 1.423-1.158 2.58-2.581 2.58h-35.5844v-27.437l.1025.081c.8085.64 1.7961.969 2.7916.969.7098 0 1.4238-.168 2.079-.507 7.9283-4.113 13.0733-11.916 13.7953-20.7003h2.673c.535 0 1.068.0279 1.598.0782-2.352 3.391-3.734 7.5021-3.734 11.9321 0 3.308.748 6.473 2.222 9.41.529 1.054 1.813 1.478 2.866.95 1.053-.529 1.478-1.812.949-2.866-1.173-2.336-1.768-4.858-1.768-7.494 0-9.2221 7.502-16.725 16.725-16.725 9.222 0 16.725 7.5029 16.725 16.725 0 9.222-7.503 16.724-16.725 16.724z"/><path d="m132.722 103.869h-4.938v-7.2948c0-1.1788-.956-2.1345-2.135-2.1345s-2.134.9557-2.134 2.1345v9.4298c0 1.179.955 2.134 2.134 2.134h7.073c1.179 0 2.134-.955 2.134-2.134s-.955-2.135-2.134-2.135z"/><path d="m14.6271 101.289c0-1.179-.9557-2.1345-2.1345-2.1345h-9.42989c-1.17881 0-2.134487.9555-2.134487 2.1345s.955677 2.135 2.134487 2.135h9.42989c1.1788 0 2.1345-.956 2.1345-2.135z"/><path d="m20.2233 118.3-8.1663 4.715c-1.0208.589-1.3706 1.894-.7812 2.915.3953.685 1.1128 1.068 1.8505 1.068.362 0 .7291-.092 1.0652-.286l8.1663-4.715c1.0208-.59 1.3706-1.895.7812-2.916s-1.8948-1.371-2.9157-.781z"/><path d="m12.057 79.5633 8.1663 4.7147c.3361.1941.7032.2863 1.0653.2863.7376 0 1.4551-.3831 1.8504-1.0675.5894-1.0209.2396-2.3263-.7812-2.9157l-8.1663-4.7147c-1.0211-.59-2.3263-.2396-2.9157.7812-.5894 1.0209-.2396 2.3263.7812 2.9157z"/></g></g></svg>