<?xml version="1.0" encoding="UTF-8"?>
<svg width="77px" height="23px" viewBox="0 0 77 23" version="1.1" xmlns="http://www.w3.org/2000/svg" xmlns:xlink="http://www.w3.org/1999/xlink">
    <!-- Generator: Sketch 52.6 (67491) - http://www.bohemiancoding.com/sketch -->
    <title>Icon/logo</title>
    <desc>Created with Sketch.</desc>
    <g id="Icon/logo" stroke="none" stroke-width="1" fill="none" fill-rule="evenodd">
        <g id="logo-maracuja-equitation-white" transform="translate(56.000000, -7.000000)"></g>
        <path d="M62.4693515,14.0622667 C62.9678042,13.7072989 63.4952168,13.2726753 64.0515895,12.757991 C64.1244449,11.0368364 64.7693353,9.66877773 65.9880471,8.65037283 C66.5383954,8.19676885 67.0521971,7.8985087 67.5273024,7.75559238 C68.0024078,7.61267606 68.5054605,7.54018227 69.032161,7.54018227 C69.5588615,7.54018227 69.9888211,7.62924606 70.3220397,7.8053024 C70.4832746,7.48425849 70.6660074,7.32477216 70.872388,7.32477216 C71.2744002,7.32477216 71.6549144,7.4925435 72.0160805,7.83015742 C72.3772465,8.16777133 72.5578296,8.48467274 72.5578296,8.78293289 C72.3965947,9.14747307 72.1622667,9.58450704 71.8526958,10.0919635 C71.7602545,10.59942 71.7151088,11.3119304 71.7151088,12.2294946 C71.7151088,13.1470588 71.8354975,13.6048053 72.0762748,13.6048053 C72.3750967,13.6048053 73.0974288,13.0310688 74.2432711,11.8815244 C74.4496517,11.6619718 74.5979878,11.5501243 74.6904291,11.5501243 C74.8968097,11.5501243 75,11.8048882 75,12.3123447 C75,12.587821 74.8796113,12.9233637 74.6388339,13.3148302 C74.3980566,13.7062966 74.0863359,14.0666943 73.7015221,14.3918807 C73.3167082,14.7170671 72.8910482,14.9863297 72.4202425,15.1955261 C71.9494368,15.4047225 71.4915298,15.5103563 71.0443718,15.5103563 C70.435979,15.5103563 70.0296672,14.996686 69.8232866,13.9693455 C69.5244647,14.443662 69.1353513,14.8330572 68.6537965,15.1375311 C68.1722418,15.442005 67.5273024,15.5932063 66.7189784,15.5932063 C65.9106544,15.5932063 65.2592656,15.3508699 64.7669619,14.8641259 C64.5998834,14.6989343 64.4617755,14.5218144 64.3526384,14.3326852 C64.2922729,14.3988748 64.2290163,14.465555 64.1628687,14.5327258 C63.5885195,15.1159592 62.905189,15.6168635 62.1128773,16.0372499 C61.7415265,17.8254203 61.2844842,19.3150749 60.7425402,20.5062138 C59.9858113,22.1694283 58.9883051,23 57.7500215,23 C57.1545275,23 56.6751225,22.8260149 56.3139565,22.4780447 C55.9527904,22.1300746 55.7722074,21.6743993 55.7722074,21.1110191 C55.7722074,20.3260149 56.0882277,19.4892295 56.7181185,18.6006628 C57.3480093,17.7120961 58.5346977,16.6143331 60.2781839,15.3115162 L60.3985725,14.4664457 C60.4379435,14.2074932 60.4751354,13.9495287 60.5102108,13.6925521 C60.336868,13.9312541 60.1219386,14.1671253 59.8654227,14.4001657 C58.5346977,15.1520298 57.691977,15.5269263 57.3372603,15.5269263 C57.3028635,15.5269263 57.2749162,15.5207125 57.2512684,15.5103563 C56.8148594,15.5103563 56.5095881,15.3715824 56.3311549,15.096106 C56.1527216,14.8206297 56.0409322,14.4726595 55.9957864,14.0521955 C55.765758,14.460232 55.4518875,14.8123447 55.0498753,15.1043911 C54.6478631,15.3964374 54.1899561,15.5434963 53.6740046,15.5434963 C52.7689397,15.5434963 52.0724052,15.3777962 51.5844011,15.046396 C51.2503079,14.8195157 51.0310805,14.5178853 50.9260291,14.1408401 C50.8886218,14.1805082 50.8501043,14.2200017 50.8104738,14.2593206 C50.4493078,14.6176471 49.9871012,14.9241922 49.426004,15.1789561 C48.8649067,15.43372 48.2027689,15.5600663 47.4395907,15.5600663 C46.6764124,15.5600663 46.0099751,15.3425849 45.435979,14.905551 C45.1126289,14.6593559 44.8806966,14.3520324 44.7397977,13.9835804 C44.6087587,14.1251741 44.466084,14.2613635 44.3116347,14.3918807 C43.9268209,14.7170671 43.5011609,14.9863297 43.0303551,15.1955261 C42.5595494,15.4047225 42.1016424,15.5103563 41.6544845,15.5103563 C41.0460917,15.5103563 40.6397799,14.996686 40.4333993,13.9693455 C40.1345773,14.443662 39.7454639,14.8330572 39.2639092,15.1375311 C38.7823545,15.442005 38.1374151,15.5932063 37.3290911,15.5932063 C36.520767,15.5932063 35.8693783,15.3508699 35.3770746,14.8641259 C35.1408945,14.6306131 34.9626044,14.3732649 34.8422044,14.0918525 C34.755616,14.2004078 34.6616006,14.3087044 34.5601513,14.4167357 C33.8657666,15.1561723 33.0724912,15.5207125 32.1781753,15.5103563 C31.6514748,15.5103563 31.2559119,15.3053024 30.9914868,14.8972659 C30.7270617,14.4892295 30.5894746,13.9921292 30.5787256,13.4059652 C30.5787256,12.2460646 30.8474503,11.1462303 31.3870496,10.1085336 C31.1355233,10.2079536 30.8517499,10.2576636 30.5357296,10.2576636 C30.2197093,10.2576636 29.3210938,10.1789561 29.1835068,10.1561723 C28.8158913,11.5211268 27.9065268,12.7949461 27.9065268,12.7949461 C27.3045834,13.7000829 26.8273282,14.0666943 26.4425144,14.3918807 C26.0577006,14.7170671 25.6320406,14.9863297 25.1612348,15.1955261 C24.6904291,15.4047225 24.2325221,15.5103563 23.7853642,15.5103563 C23.1769714,15.5103563 22.7706596,14.996686 22.564279,13.9693455 C22.265457,14.443662 21.8763436,14.8330572 21.3947889,15.1375311 C20.9132342,15.442005 20.2682948,15.5932063 19.4599708,15.5932063 C18.6516467,15.5932063 18.000258,15.3508699 17.5079543,14.8641259 C17.226973,14.5863179 17.0279273,14.2747741 16.9108169,13.9291094 C16.7664018,14.0903227 16.6072143,14.2447079 16.4330553,14.3918807 C16.0482415,14.7170671 15.6225815,14.9863297 15.1517757,15.1955261 C14.68097,15.4047225 14.1865165,15.5103563 13.6641156,15.5103563 C13.1417147,15.5103563 12.7354029,15.3467274 12.4430304,15.021541 C12.1506578,14.6963546 12.0044716,14.3318144 12.0044716,13.9279205 C12.0044716,13.5240265 12.0732651,13.0683513 12.2108522,12.5608948 C12.3484392,12.0534383 12.4967753,11.523198 12.6580101,10.970174 C13.0944191,9.501657 13.3179981,8.46810273 13.3287471,7.87158244 C13.3287471,7.61681856 13.2943503,7.42212096 13.2255568,7.28334714 C13.1567633,7.14457332 13.0256256,7.07622204 12.829994,7.07622204 C12.4860263,7.07622204 12.1184109,7.27506214 11.7292974,7.67274234 C11.340184,8.07042254 10.9725686,8.57787904 10.6286009,9.1971831 C9.83747528,10.6118476 9.41826468,11.9913007 9.37311893,13.3396852 C9.3967667,13.495029 9.41826468,13.6483016 9.44191246,13.8036454 C9.46556024,13.9589892 9.47630923,14.1246893 9.47630923,14.3007457 C9.47630923,14.6549296 9.2957262,14.9780447 8.93456015,15.2700911 C8.5733941,15.5621375 8.16923209,15.7091964 7.72207413,15.7091964 C7.45764898,15.7091964 7.26416717,15.5849213 7.13732909,15.3363712 C7.01049101,15.087821 6.94814687,14.7812759 6.94814687,14.4167357 C6.94814687,14.0521955 7.03413879,13.5550953 7.20612262,12.925435 C7.37810646,12.2957746 7.56728867,11.6267606 7.77366928,10.920464 C8.32401754,9.05426678 8.60564107,7.66238608 8.61639006,6.74482187 C8.61639006,6.28086164 8.55619572,5.91632146 8.43580703,5.65120133 C8.31541835,5.38608119 8.08324018,5.25352113 7.73927251,5.25352113 C7.12013071,5.25352113 6.5074383,5.67812759 5.89904549,6.52941176 C5.29065268,7.38069594 4.74675381,8.70008285 4.26519907,10.4896437 C4.13836099,10.953604 4.04162009,11.3574979 3.97282655,11.6992543 L3.95562817,12.0140845 C4.17275776,13.0310688 4.28239745,13.6938691 4.28239745,14.0024855 C4.28239745,14.6425021 4.04806948,15.0733223 3.57726374,15.2949461 C3.36013415,15.3943662 3.14945395,15.4875725 2.94952274,15.5766363 C2.74959154,15.6657001 2.53461175,15.7091964 2.30458337,15.7091964 C1.73058732,15.7091964 1.4446642,15.1810273 1.4446642,14.1267606 C1.4446642,13.0724938 1.74778571,11.0095278 2.35617852,7.93786247 C2.57330811,6.83388567 2.6829478,6.21458161 2.6829478,6.08202154 C2.6829478,5.18724109 2.44861983,4.73985087 1.97781409,4.73985087 C1.81657924,4.73985087 1.67039298,4.78334714 1.53925531,4.87241094 C1.40811764,4.96147473 1.27483017,5.05468103 1.14369249,5.15410108 C1.01255482,5.25352113 0.877117551,5.34672742 0.739530484,5.43579122 C0.601943417,5.52485501 0.445008169,5.56835128 0.266574942,5.56835128 C0.0881417147,5.56835128 -1.42108547e-14,5.41922121 -1.42108547e-14,5.12096106 C-1.42108547e-14,4.51408451 0.292372517,4.01698426 0.877117551,3.62966031 C1.43821481,3.23198012 2.12185055,3.03314002 2.92372517,3.03314002 C3.95562817,3.03314002 4.56402098,3.49710025 4.74675381,4.42502071 C4.79189956,4.7004971 4.82629633,4.99461475 4.84994411,5.30323115 C5.69911428,3.76843413 6.76971365,3 8.06604179,3 C9.47630923,3 10.2846332,3.65244408 10.4910138,4.95526098 C10.5598074,5.33015742 10.5877548,5.73405137 10.5770058,6.16487158 L10.5770058,6.29743165 C11.3229856,5.30323115 12.2044028,4.8061309 13.2255568,4.8061309 C14.670221,4.8061309 15.3925531,5.64498757 15.3925531,7.32477216 C15.3925531,8.05385253 15.2743142,8.90720795 15.0399862,9.88483844 C14.8056583,10.8624689 14.6336744,11.564623 14.5240347,11.9892295 C14.414395,12.413836 14.3606501,12.7431649 14.3606501,12.975145 C14.3606501,13.3956089 14.5132858,13.6048053 14.8164073,13.6048053 C15.1080498,13.6048053 15.7917337,13.0737 16.8636298,12.0096446 C17.0711064,10.6355624 17.6925433,9.516511 18.7290395,8.65037283 C19.2793877,8.19676885 19.7931894,7.8985087 20.2682948,7.75559238 C20.7434001,7.61267606 21.2464528,7.54018227 21.7731533,7.54018227 C22.2998538,7.54018227 22.7298134,7.62924606 23.0630321,7.8053024 C23.2242669,7.48425849 23.4069997,7.32477216 23.6133803,7.32477216 C24.0153926,7.32477216 24.3959068,7.4925435 24.7570728,7.83015742 C25.1182389,8.16777133 25.2988219,8.48467274 25.2988219,8.78293289 C25.1375871,9.14747307 24.9032591,9.58450704 24.5936882,10.0919635 C24.5012469,10.59942 24.4561011,11.3119304 24.4561011,12.2294946 C24.4561011,13.1470588 24.5979878,13.7021541 24.8172672,13.6048053 C26.7327371,12.7514499 27.8377333,10.1499586 28.0914094,9.2096106 C27.5625591,8.72286661 27.2422392,8.40803645 27.2422392,8.05385253 C27.2422392,7.31441591 27.6550004,6.94366197 28.4805228,6.94366197 C28.904033,6.94366197 29.2780979,7.15907208 29.5984177,7.58989229 C29.8284461,7.88815244 29.9939806,8.23612262 30.0971709,8.63380282 C30.2584057,8.68972659 30.4583369,8.71665286 30.6991143,8.71665286 C31.032333,8.71665286 31.414997,8.61101906 31.851406,8.4018227 L32.2985639,8.18641259 C32.436151,8.12013256 32.5565397,8.08699254 32.65973,8.08699254 C32.9929487,8.08699254 33.3240175,8.55716653 33.6572362,9.49544325 C33.5540459,9.92626346 33.4422564,10.3405137 33.3218677,10.7381939 C33.2014791,11.1358741 33.0617422,11.6164043 32.9005074,12.1797846 C32.7392725,12.7431649 32.6575802,13.1222038 32.6511308,13.3148302 C32.6446814,13.5074565 32.7048757,13.6048053 32.8317138,13.6048053 C33.0036977,13.6048053 33.2165276,13.4991715 33.468054,13.2899751 C33.7195804,13.0807788 33.9732565,12.8508699 34.2247829,12.6023198 C34.3982914,12.4308644 34.5625929,12.2682795 34.7176876,12.115245 C34.9088075,10.6927907 35.5352365,9.53859452 36.5981598,8.65037283 C37.148508,8.19676885 37.6623097,7.8985087 38.1374151,7.75559238 C38.6125204,7.61267606 39.1155731,7.54018227 39.6422736,7.54018227 C40.1689741,7.54018227 40.5989337,7.62924606 40.9321524,7.8053024 C41.0933872,7.48425849 41.27612,7.32477216 41.4825006,7.32477216 C41.8845129,7.32477216 42.2650271,7.4925435 42.6261931,7.83015742 C42.9873592,8.16777133 43.1679422,8.48467274 43.1679422,8.78293289 C43.0067074,9.14747307 42.7723794,9.58450704 42.4628085,10.0919635 C42.3703672,10.59942 42.3252214,11.3119304 42.3252214,12.2294946 C42.3252214,13.1470588 42.4456101,13.6048053 42.6863875,13.6048053 C42.9659119,13.6048053 43.6160136,13.1027781 44.6366923,12.0970282 C44.7007363,11.6290655 44.8154114,11.1899291 44.9802219,10.7796189 C45.2489466,10.1106048 45.6058131,9.53479702 46.0465216,9.04805302 C46.4872302,8.56130903 46.9902829,8.18434134 47.5513802,7.91300746 C48.1124774,7.64167357 48.6456273,7.50704225 49.1508298,7.50704225 C50.0343968,7.50704225 50.4751053,7.84465617 50.4751053,8.51781276 C50.4751053,8.9051367 50.3912632,9.21375311 50.2257288,9.44573322 C50.0601943,9.67771334 49.8903603,9.7937034 49.7183765,9.7937034 C49.4883481,9.7937034 49.2884169,9.71706711 49.1164331,9.56172328 C48.9444492,9.40637945 48.755267,9.32767191 48.5488864,9.32145816 C48.3425058,9.31524441 48.1447244,9.41259321 47.9555422,9.61143331 C47.76636,9.81027341 47.6094247,10.0650373 47.4825866,10.3736537 C47.2310603,10.9929577 47.1042222,11.7158244 47.1042222,12.5443248 C47.1149712,12.942005 47.3041534,13.2402651 47.6717689,13.4391052 C47.9232952,13.5716653 48.2221171,13.6400166 48.5660848,13.6462303 C48.9100525,13.6524441 49.2389715,13.544739 49.5549918,13.3231152 C49.8710121,13.1014913 50.159085,12.8612262 50.4235102,12.6023198 C50.6879353,12.3434134 50.9201135,12.1031483 51.1200447,11.8815244 C51.2458692,11.7448213 51.351691,11.6498739 51.438548,11.5976822 L51.9025712,7.8053024 C52.2572878,7.54018227 52.7689397,7.4076222 53.4332273,7.4076222 C53.9599278,7.4076222 54.2587497,7.73902237 54.3275432,8.4018227 C54.3855878,8.94241922 54.3597902,9.42709196 54.2501505,9.85169843 C54.1405108,10.2763049 53.9943245,10.8127589 53.8115917,11.4589892 C53.6288589,12.1052196 53.5364176,12.6768848 53.5364176,13.1739851 C53.5364176,13.5716653 53.7943933,13.7705054 54.3103448,13.7705054 C54.8714421,13.7705054 55.3594462,13.2961889 55.7722074,12.3454847 C56.0925273,11.6164043 56.3118067,10.8044739 56.425746,9.90969345 C56.414997,9.82062966 56.4063978,9.7087821 56.3999484,9.57000829 C56.393499,9.43123447 56.3891994,9.29660315 56.38275,9.16404308 C56.3763006,9.03148302 56.3741508,8.89892295 56.3741508,8.76636288 L56.3741508,8.46810273 C56.3741508,7.72866611 56.9696449,7.35791218 58.1627827,7.35791218 C58.4616046,7.35791218 58.6464872,7.45111848 58.7217302,7.63960232 C58.7969731,7.82808616 58.8335196,8.11391881 58.8335196,8.50124275 C58.8335196,9.04183927 58.7066816,9.88276719 58.4551552,11.019884 C58.2036289,12.1570008 58.0832402,12.925435 58.0939892,13.3231152 C58.0939892,13.511599 58.1563333,13.6048053 58.2831714,13.6048053 C58.4551552,13.6048053 58.6679852,13.4991715 58.9195116,13.2899751 C59.1710379,13.0807788 59.4247141,12.8508699 59.6762404,12.6023198 C59.9277668,12.3537697 60.159945,12.1238608 60.372775,11.9146645 C60.5399946,11.7502998 60.6660738,11.6498661 60.7510127,11.614368 C60.759921,11.521014 60.7685613,11.4277961 60.776937,11.3347142 C60.8457305,10.7381939 60.9553702,9.84962717 61.1037063,8.66694283 C61.148852,8.34589892 61.2756901,8.11184756 61.4820707,7.96271748 C61.6884513,7.81358741 62.0044716,7.73902237 62.4279818,7.73902237 C62.7719494,7.73902237 62.9976782,7.78873239 63.1073179,7.88815244 C63.2169576,7.98757249 63.2707026,8.12634631 63.2707026,8.30240265 C63.2707026,8.77671914 63.0922693,10.1313173 62.7375527,12.3620547 C62.6924069,12.6271748 62.617164,13.0973488 62.5139737,13.7705054 C62.4993009,13.8684578 62.4844268,13.9657116 62.4693515,14.0622667 Z M22.4266919,11.8483844 C22.4266919,10.6118476 22.5406312,9.55136703 22.7706596,8.66694283 C21.8419469,8.84299917 21.0336228,9.27381939 20.3456875,9.95940348 C19.6577522,10.6449876 19.3137845,11.506628 19.3137845,12.5443248 C19.3137845,13.3956089 19.6405538,13.8202154 20.2940924,13.8202154 C20.9927767,13.8098592 21.5732221,13.4494615 22.0311291,12.7431649 C22.1923639,12.5008285 22.3235016,12.2025684 22.4266919,11.8483844 Z M37.1829048,12.5443248 C37.1829048,13.3956089 37.5096741,13.8202154 38.1632127,13.8202154 C38.861897,13.8098592 39.4423424,13.4494615 39.9002494,12.7431649 C40.0614842,12.5008285 40.1926219,12.2025684 40.2958122,11.8483844 C40.2958122,10.6118476 40.4097515,9.55136703 40.6397799,8.66694283 C39.7110672,8.84299917 38.9027431,9.27381939 38.2148078,9.95940348 C37.5247227,10.6449876 37.1829048,11.506628 37.1829048,12.5443248 Z M58.9195116,20.4150787 C59.2742282,19.7626346 59.6074469,18.7145816 59.9170178,17.2667771 C59.0463496,17.9855012 58.4186087,18.6338028 58.0337948,19.2137531 C57.648981,19.7937034 57.457649,20.3053024 57.457649,20.7464789 C57.457649,21.1772991 57.6188838,21.3927092 57.9392037,21.3927092 C58.2380256,21.3927092 58.5647949,21.0675228 58.9195116,20.4150787 Z M63.6662654,4.35874068 C63.9306905,4.55758078 64.0618282,4.83927092 64.0618282,5.2038111 C64.0618282,5.64498757 63.9134921,5.99710025 63.6146702,6.25600663 C63.3158483,6.51491301 62.9202855,6.64540182 62.4279818,6.64540182 C61.946427,6.64540182 61.585261,6.53769677 61.3444836,6.32228666 C61.1037063,6.10687655 60.9833176,5.80654515 60.9833176,5.41922121 C60.9833176,5.03189727 61.1402528,4.7087821 61.4562731,4.44987572 C61.7722934,4.19096935 62.1635566,4.06048053 62.6343624,4.06048053 C63.0578726,4.06048053 63.4018402,4.15990058 63.6662654,4.35874068 Z M66.5727922,12.5443248 C66.5727922,13.3956089 66.8995614,13.8202154 67.5531,13.8202154 C68.2517843,13.8098592 68.8322298,13.4494615 69.2901367,12.7431649 C69.4513716,12.5008285 69.5825092,12.2025684 69.6856995,11.8483844 C69.6856995,10.6118476 69.7996388,9.55136703 70.0296672,8.66694283 C69.1009545,8.84299917 68.2926305,9.27381939 67.6046952,9.95940348 C66.9167598,10.6449876 66.5727922,11.506628 66.5727922,12.5443248 Z" id="logo" fill="#FFFFFF"></path>
    </g>
</svg>