<svg width="297" height="468" viewBox="0 0 297 468" fill="none" xmlns="http://www.w3.org/2000/svg">
<path d="M296.384 393.946C290.656 409.323 278.687 411.95 256.253 419.268C215.775 431.47 174.092 444.639 148.603 467.144C123.125 444.639 81.4427 431.47 40.9652 419.268C18.5308 411.95 6.56175 409.323 0.833801 393.946C1.31113 331.48 1.63333 89.284 0.833801 61.657C21.7527 60.9167 44.3423 42.2082 57.8865 31.8809C80.2017 16.4436 92.3497 6.70133 114.104 6.39092C118.006 12.253 126.598 25.4218 148.603 0.660156C170.608 25.4218 179.212 12.253 183.114 6.39092C204.88 6.70133 217.016 16.4556 239.319 31.8928C252.875 42.2201 275.477 60.9287 296.384 61.6689C295.596 89.284 295.895 331.48 296.384 393.946Z" fill="#FD4E26"/>
</svg>
